<?xml version="1.0" encoding="utf-8"?>
<!-- Generator: Adobe Illustrator 19.1.0, SVG Export Plug-In . SVG Version: 6.00 Build 0)  -->
<svg version="1.1" id="Lager_1" xmlns="http://www.w3.org/2000/svg" xmlns:xlink="http://www.w3.org/1999/xlink" x="0px" y="0px"
	 viewBox="0 0 245 245" style="enable-background:new 0 0 245 245;" xml:space="preserve">
<style type="text/css">
	.st0{fill:#A9A9A5;}
	.st1{fill:#FFFFFF;}
	.st2{fill:none;stroke:#FFFFFF;stroke-width:2;stroke-miterlimit:10;stroke-dasharray:2.9966,5.9933;}
	.st3{fill:#E1ACB7;stroke:#94938F;stroke-miterlimit:10;}
	.st4{fill:none;stroke:#FFFFFF;stroke-width:2;stroke-miterlimit:10;stroke-dasharray:3,6;}
	.st5{fill:#47463E;}
	.st6{fill:#656C69;}
	.st7{fill:#908FB2;}
	.st8{fill:#24242D;}
</style>
<g>
	<circle class="st0" cx="952" cy="119" r="119"/>
	<g>
		<path class="st1" d="M919.2,102.7c0,1-0.1,2.1-0.4,3.3c-0.3,1.2-0.5,1.8-0.8,1.8c-0.2,0-0.3-0.1-0.3-0.3c0-0.1,0-0.1,0.1-0.3
			c0.5-1.4,0.8-2.8,0.8-4.4c0-2.5-0.7-4.4-2.2-5.9s-3.4-2.2-5.8-2.2c-3.2,0-6.5,1.1-10,3.2c2.7,2,4.1,4.4,4.1,7.1
			c0,4.4-3,6.9-8.9,7.8c4.9,1.7,7.3,4.8,7.3,9.3c0,3.4-1.4,6.3-4.3,8.8c-2.9,2.5-6.2,3.8-10,3.8c-1.8,0-3.3-0.5-4.4-1.4
			s-1.6-2.2-1.6-3.9c0-2.5,1.1-5,3.4-7.4c2.3-2.5,4.6-3.7,6.9-3.7c1.3,0,2.3,0.4,3.2,1.2c0.8,0.8,1.2,1.9,1.2,3.1
			c0,0.8-0.2,1.7-0.7,2.8c-0.5,1.1-0.8,1.7-1.1,1.7c-0.2,0-0.3-0.1-0.3-0.2c0-0.1,0-0.2,0.1-0.4c1-1.5,1.5-2.8,1.5-4
			c0-1.1-0.4-2-1.1-2.7c-0.7-0.7-1.7-1-2.8-1c-2.2,0-4.4,1.2-6.5,3.5c-2.1,2.3-3.2,4.7-3.2,7.1c0,1.3,0.4,2.4,1.3,3.2s2,1.3,3.3,1.3
			c3,0,5.7-1.5,8.2-4.4s3.7-6.1,3.7-9.6c0-3.2-1.6-5.6-4.7-7.1l-1.7,0.2c-0.5,0.1-0.9,0.1-1.4,0.1c-1.5,0-2.2-0.2-2.2-0.7
			c0-0.4,0.6-0.5,1.8-0.5c0.9,0,2,0.2,3.5,0.5c2-0.6,3.6-1.7,4.8-3.3c1.2-1.6,1.8-3.4,1.8-5.4c0-2-0.8-3.7-2.3-5.3
			c-4.3,3.3-8.3,8.8-12.1,16.7c-2.3,4.8-4.5,8.3-6.4,10.5c-1.9,2.1-4.5,4-8,5.7c-4.1,2-7.7,3-10.9,3c-2.6,0-4.8-0.6-6.5-1.8
			c-1.7-1.2-2.6-2.7-2.6-4.5c0-1,0.3-1.9,0.9-2.6c0.6-0.7,1.3-1.1,2.1-1.1c1.2,0,1.8,0.7,1.8,2c0,0.7-0.2,1.2-0.6,1.7
			c-0.4,0.5-0.9,0.7-1.5,0.7c-1,0-1.5-0.5-1.5-1.6c0-0.4,0-0.6-0.1-0.6c-0.3,0-0.5,0.5-0.5,1.6c0,1.6,0.8,3,2.4,4
			c1.6,1.1,3.6,1.6,6,1.6c4.3,0,8.2-1.6,11.6-4.7c1.5-1.4,2.8-2.8,3.9-4.3s3.7-5.3,7.6-11.4c1.9-2.9,4.3-5.9,7-8.9
			c2.7-3,5-5.1,6.8-6.4c-3.1-2.6-7.6-3.9-13.4-3.9c-8.2,0-15.4,3-21.5,8.9c-5,4.9-7.5,9.5-7.5,13.8c0,2.2,0.7,3.9,2.1,5.2
			s3.3,1.9,5.7,1.9c3.9,0,8-1.9,12.2-5.7c4.2-3.8,6.3-7.4,6.3-11c0-2.8-1.5-4.2-4.4-4.2c-2.9,0-6,1.6-9.4,4.8c-3.3,3.2-5,6.3-5,9.1
			c0,0.7,0.2,1.3,0.7,1.8s1,0.8,1.6,0.8c0.3,0.1,0.5,0.1,0.5,0.2c0,0.2-0.2,0.3-0.6,0.3c-0.9,0-1.7-0.4-2.4-1.3
			c-0.6-0.8-1-1.9-1-3.1c0-3,1.7-6,5-8.9c3.3-2.9,6.8-4.3,10.3-4.3c3.4,0,5,1.6,5,4.7c0,3.8-2.1,7.6-6.4,11.5s-8.5,5.8-12.7,5.8
			c-2.7,0-4.9-0.8-6.5-2.4c-1.6-1.6-2.4-3.8-2.4-6.5c0-5.5,3.1-10.6,9.4-15.1c6.2-4.6,13.1-6.8,20.7-6.8c5.7,0,10.5,1.3,14.5,3.8
			c3.6-2.2,7-3.3,10.4-3.3c2.6,0,4.7,0.8,6.3,2.3C918.4,98.1,919.2,100.2,919.2,102.7z"/>
		<path class="st1" d="M924.2,124c0,0.2-0.6,0.9-1.8,2.1c-1.5,1.6-2.9,2.5-4.2,2.5c-1.5,0-2.2-0.9-2.2-2.6c0-0.5,0.1-1.2,0.4-2.1
			c-1.2,1.1-2.2,2.1-3,3.2c-0.8,1.1-2.1,3.2-4,6.4c-1-0.1-1.6-0.1-1.8-0.1c-0.1,0-0.7,0-1.8,0.1l4.8-7.8c2.4-3.9,3.6-6.3,3.6-7.3
			c0-0.5-0.2-0.8-0.7-0.8c-1.1,0-3.1,2.1-6,6.3c-0.2,0.3-0.3,0.4-0.5,0.4c-0.1,0-0.1-0.1-0.1-0.2c0-0.1,0.1-0.2,0.1-0.2l0.5-0.7
			c3-4,5.1-6,6.1-6c1.6,0,2.3,1,2.3,3c0,1.5-0.8,3.5-2.4,6c1-1.2,2-2.1,2.9-2.9c0.7-1.7,1.7-3.2,2.8-4.4c1.1-1.2,2.1-1.8,3-1.8
			c0.6,0,0.9,0.3,0.9,0.8c0,0.9-1.4,2.3-4.1,4c-0.4,0.3-1.1,0.7-1.9,1.2l-0.4,0.3c-0.3,0.9-0.4,1.6-0.4,2.2c0,1.6,0.6,2.5,1.8,2.5
			c1.5,0,3.2-1.3,5-3.8c0.4-0.4,0.6-0.6,0.7-0.6C924.2,123.8,924.2,123.9,924.2,124z"/>
		<path class="st1" d="M944.8,124c0,0.4-1.4,2.3-4.3,5.7c-2.3,2.8-4.1,4.2-5.5,4.2c-0.9,0-1.6-0.3-2.2-1c-0.6-0.7-0.9-1.5-0.9-2.5
			c0-1.1,0.3-2.2,0.9-3.4c-2,2.7-3.4,4.6-4.5,5.5c-1,1-2,1.4-3,1.4c-1,0-1.9-0.4-2.6-1.3s-1.1-2-1.1-3.4c0-3.8,2.6-7.1,7.9-10
			c2.3-1.3,4.2-1.9,5.6-1.9c1.2,0,1.8,0.6,1.8,1.8c0,0.3-0.1,0.8-0.2,1.3l1.5-2.8c0.6,0.1,1.1,0.2,1.6,0.2c0.5,0,1.2-0.1,2.1-0.2
			l-5.2,8.6c-1.8,3-2.7,5-2.7,5.9c0,0.9,0.4,1.4,1.1,1.4c0.8,0,2-0.9,3.8-2.7c1.7-1.8,3.5-4,5.3-6.6c0.1-0.2,0.2-0.3,0.3-0.3
			C944.8,123.8,944.8,123.9,944.8,124z M936.7,119.2c0-1-0.4-1.4-1.3-1.4c-1.8,0-4.2,1.8-7.1,5.3c-2.9,3.5-4.4,6.4-4.4,8.5
			c0,1.3,0.6,1.9,1.7,1.9c1.3,0,3.7-2.2,7-6.7C935.4,123,936.7,120.5,936.7,119.2z"/>
		<path class="st1" d="M968.3,124c0,0.4-1.4,2.3-4.3,5.7c-2.3,2.8-4.2,4.2-5.5,4.2c-0.9,0-1.6-0.3-2.2-1c-0.6-0.7-0.9-1.5-0.9-2.5
			c0-0.9,0.2-1.7,0.5-2.4c0.4-0.8,1.3-2.2,2.8-4.5c1.6-2.3,2.4-3.8,2.4-4.5c0-0.8-0.4-1.2-1.3-1.2c-2.9,0-7.2,5.3-13.2,15.9
			c-1-0.1-1.5-0.1-1.7-0.1c-0.7,0-1.3,0-1.9,0.1l4.6-7.2c2.6-4.1,3.9-6.7,3.9-7.8c0-0.6-0.2-0.9-0.7-0.9c-1,0-3,2.1-5.9,6.3
			c-0.2,0.3-0.3,0.4-0.4,0.4c-0.1,0-0.2-0.1-0.2-0.2c0-0.1,0.1-0.2,0.1-0.2l0.6-0.7c3-4,5-6,6-6c0.7,0,1.2,0.3,1.7,0.9
			c0.5,0.6,0.7,1.3,0.7,2.2c0,1.3-0.7,3-2.2,5.2c2.3-3.2,4.1-5.4,5.3-6.5c1.2-1.2,2.4-1.8,3.4-1.8c0.9,0,1.6,0.4,2.2,1.1
			s0.9,1.6,0.9,2.6c0,1.3-0.9,3.3-2.7,6c-1.8,2.8-2.8,4.5-2.8,5.3c0,0.8,0.4,1.2,1.2,1.2c1.7,0,4.7-3.1,9-9.3
			c0.1-0.2,0.2-0.3,0.3-0.3C968.3,123.8,968.3,123.9,968.3,124z"/>
		<path class="st1" d="M994.9,103.5c-7.3,11.6-11.9,19.1-13.9,22.3c-1.9,3.3-2.9,5.4-2.9,6.2c0,0.9,0.4,1.3,1.2,1.3
			c1.8,0,4.8-3.1,9.1-9.3c0.1-0.2,0.2-0.3,0.3-0.3c0.1,0,0.2,0.1,0.2,0.2c0,0.1-0.1,0.2-0.3,0.5l-1.3,1.7c-3.7,5.1-6.4,7.7-8.2,7.7
			c-0.9,0-1.6-0.3-2.2-1c-0.6-0.7-0.9-1.5-0.9-2.6s0.4-2.3,1.1-3.7c-3.4,4.8-6,7.3-7.6,7.3c-1,0-1.9-0.4-2.6-1.3s-1.1-2-1.1-3.4
			c0-3.2,2-6.1,6-8.8c3.2-2.1,5.7-3.1,7.5-3.1c1.2,0,1.8,0.6,1.8,1.8c0,0.5-0.2,1.2-0.5,1.8l10.5-17.5c0.6,0.2,1.3,0.3,1.9,0.3
			C993.3,103.7,993.9,103.6,994.9,103.5z M980.8,119.3c0-1-0.5-1.6-1.4-1.6c-1.8,0-4.1,1.8-7,5.3c-2.9,3.5-4.3,6.3-4.3,8.5
			c0,1.3,0.5,2,1.6,2c1.6,0,4.2-2.7,8.1-8.1C979.8,122.4,980.8,120.4,980.8,119.3z"/>
		<path class="st1" d="M999,124c0,0.1-0.1,0.2-0.3,0.5l-1.3,1.7c-3.7,5.1-6.5,7.7-8.4,7.7c-0.9,0-1.7-0.3-2.3-1s-0.9-1.5-0.9-2.4
			c0-1.1,0.7-2.9,2-5.2l4.6-7.8c0.6,0.1,1.1,0.2,1.4,0.2c0.5,0,1.3-0.1,2.2-0.2l-6.7,10.9c-1,1.6-1.4,2.8-1.4,3.7
			c0,0.9,0.5,1.3,1.4,1.3c1.7,0,4.8-3.1,9.2-9.3c0.1-0.2,0.2-0.3,0.3-0.3C999,123.8,999,123.9,999,124z M998.6,111.9
			c0,0.7-0.3,1.3-0.9,1.9c-0.6,0.6-1.2,0.9-1.9,0.9c-0.9,0-1.3-0.4-1.3-1.3c0-0.6,0.3-1.3,0.9-1.9c0.6-0.6,1.2-0.9,1.9-0.9
			C998.2,110.6,998.6,111.1,998.6,111.9z"/>
		<path class="st1" d="M1022.5,124c0,0.4-1.4,2.3-4.3,5.7c-2.3,2.8-4.2,4.2-5.5,4.2c-0.9,0-1.6-0.3-2.2-1c-0.6-0.7-0.9-1.5-0.9-2.5
			c0-0.9,0.2-1.7,0.5-2.4c0.4-0.8,1.3-2.2,2.8-4.5c1.6-2.3,2.4-3.8,2.4-4.5c0-0.8-0.4-1.2-1.3-1.2c-2.9,0-7.2,5.3-13.2,15.9
			c-1-0.1-1.5-0.1-1.7-0.1c-0.7,0-1.3,0-1.9,0.1l4.6-7.2c2.6-4.1,3.9-6.7,3.9-7.8c0-0.6-0.2-0.9-0.7-0.9c-1,0-3,2.1-5.9,6.3
			c-0.2,0.3-0.3,0.4-0.4,0.4c-0.1,0-0.2-0.1-0.2-0.2c0-0.1,0.1-0.2,0.1-0.2l0.6-0.7c3-4,5-6,6-6c0.7,0,1.2,0.3,1.7,0.9
			c0.5,0.6,0.7,1.3,0.7,2.2c0,1.3-0.7,3-2.2,5.2c2.3-3.2,4.1-5.4,5.3-6.5c1.2-1.2,2.4-1.8,3.4-1.8c0.9,0,1.6,0.4,2.2,1.1
			s0.9,1.6,0.9,2.6c0,1.3-0.9,3.3-2.7,6c-1.8,2.8-2.8,4.5-2.8,5.3c0,0.8,0.4,1.2,1.2,1.2c1.7,0,4.7-3.1,9-9.3
			c0.1-0.2,0.2-0.3,0.3-0.3C1022.5,123.8,1022.5,123.9,1022.5,124z"/>
		<path class="st1" d="M1042.6,124c0,0.3-1.1,1.6-3.2,4c-2.4,2.6-5.4,4.9-9.2,7l-1.5,2.7c-2.7,4.9-5.6,8.7-8.9,11.3
			c-3.2,2.6-5.9,3.8-8.2,3.8c-0.8,0-1.5-0.3-2.1-0.8c-0.5-0.5-0.8-1.1-0.8-1.9c0-4,4.5-8.1,13.6-12.2c2-0.9,3.2-1.5,3.8-1.8l5-9.2
			c-2.2,2.9-3.7,4.7-4.6,5.6c-0.9,0.8-1.8,1.2-2.7,1.2c-1,0-1.9-0.4-2.6-1.3c-0.7-0.9-1.1-2-1.1-3.3c0-3.4,2.2-6.4,6.6-9.2
			c2.9-1.8,5.3-2.8,6.9-2.8c1.2,0,1.8,0.6,1.8,1.9c0,0.4-0.1,0.8-0.3,1.3l1.6-3c0.5,0.1,1,0.2,1.4,0.2c0.5,0,1.2-0.1,2.2-0.2
			c-0.1,0.2-1,1.6-2.6,4.4l-7.3,12.5c2.6-1.4,4.6-2.8,6.1-4.2c1.5-1.3,3.3-3.3,5.2-5.8c0.3-0.4,0.5-0.6,0.6-0.6
			C1042.5,123.9,1042.6,123.9,1042.6,124z M1025.8,136.7c-0.4,0.2-1.5,0.8-3.3,1.7c-8.9,4.4-13.4,8.4-13.4,11.9
			c0,0.6,0.2,1.1,0.7,1.5c0.4,0.4,1,0.6,1.7,0.6c2.1,0,4.2-1.1,6.3-3.3s4.6-6.1,7.6-11.8L1025.8,136.7z M1035.1,119.2
			c0-1-0.5-1.5-1.4-1.5c-1.8,0-4.1,1.8-7,5.3c-2.9,3.5-4.4,6.3-4.4,8.5c0,1.3,0.6,2,1.7,2c1.2,0,3.1-1.7,5.9-5.2
			C1033.3,123.8,1035.1,120.8,1035.1,119.2z"/>
	</g>
	<g>
		<circle class="st2" cx="952.8" cy="119.8" r="110.2"/>
	</g>
</g>
<g>
	<circle class="st3" cx="1026" cy="120" r="119"/>
	<g>
		<path class="st1" d="M1029.6,101.1c0,1-0.1,2-0.4,3.1c-0.2,1.1-0.5,1.7-0.7,1.7c-0.1,0-0.2-0.1-0.2-0.2c0-0.1,0-0.3,0.1-0.4
			c0.4-1.2,0.7-2.6,0.7-4.2c0-2.5-0.7-4.4-2.2-5.9c-1.5-1.5-3.5-2.2-5.9-2.2c-4.7,0-9.3,2.2-13.7,6.7c1.7,3.1,2.5,6.4,2.5,9.9
			c0,6.4-2.5,11.8-7.4,16.3c-4.9,4.5-10.9,6.7-18,6.7c-2.2,0-5.2-0.3-9-0.9c-3.3,0.6-6.5,0.9-9.5,0.9c-5.2,0-7.7-0.5-7.7-1.6
			c0-0.5,0.6-1,1.9-1.3c1.3-0.4,2.7-0.6,4.4-0.6c2,0,6.1,0.7,12.1,2c4.1-1.1,7.3-2.8,9.6-5.1c2.3-2.2,5.8-7.1,10.5-14.7
			c2.9-4.6,6-8.5,9.4-11.7c-2.9-4.8-7.5-7.2-13.9-7.2c-6.6,0-12.7,2.6-18.2,7.8c-2.8,2.6-5,5.5-6.7,8.7c-1.7,3.2-2.5,6.1-2.5,8.7
			c0,2.1,0.7,3.8,2,5.1c1.3,1.3,3.1,1.9,5.3,1.9c3.7,0,7.6-2,11.6-6c4-4,6-7.9,6-11.6c0-1.4-0.4-2.5-1.2-3.4
			c-0.8-0.9-1.8-1.3-3.1-1.3c-1.4,0-2.2,0.2-2.2,0.7c0,0.1,0.1,0.2,0.3,0.2c0.1,0,0.2,0,0.3-0.1h0.4c1,0,1.4,0.4,1.4,1.3
			c0,0.6-0.2,1.2-0.7,1.7c-0.5,0.5-1.1,0.7-1.7,0.7c-1.2,0-1.8-0.6-1.8-1.9c0-0.9,0.4-1.6,1.2-2.3c0.8-0.6,1.7-0.9,2.8-0.9
			c1.4,0,2.6,0.5,3.5,1.4c0.9,0.9,1.3,2.2,1.3,3.7c0,3.9-2.1,8-6.2,12.1c-4.1,4.1-8.1,6.2-12.1,6.2c-2.7,0-5-0.9-6.7-2.7
			c-1.8-1.8-2.6-4.1-2.6-7c0-6.1,3-11.5,9-16.3c6-4.8,12.8-7.2,20.3-7.2c6.4,0,11.3,2.4,14.5,7.1c4.8-4.4,9.6-6.6,14.5-6.6
			c2.5,0,4.5,0.8,6,2.4S1029.6,98.5,1029.6,101.1z M974.3,131.5c-5.4-0.8-9.4-1.1-12.1-1.1c-2.3,0-3.5,0.2-3.5,0.7
			c0,0.7,2.6,1,7.7,1C969.3,132,972,131.9,974.3,131.5z M1008.1,107.4c0-2.5-0.5-4.8-1.6-7c-2.6,3-5,6.8-7.1,11.3
			c-2.8,6-5.6,10.4-8.6,13c-3,2.7-7.5,4.9-13.4,6.5c2.5,0.5,5.1,0.8,7.9,0.8c7.5,0,13.5-3.6,18.2-10.9
			C1006.6,116.5,1008.1,111.9,1008.1,107.4z"/>
		<path class="st1" d="M1025.4,122c0,0.1-0.2,0.3-0.5,0.8l-1.3,1.6c-4,5-7.5,7.5-10.4,7.5c-1.4,0-2.5-0.5-3.4-1.5s-1.4-2.2-1.4-3.7
			c0-3.5,2.5-6.6,7.4-9.3c2.6-1.4,4.7-2.1,6.3-2.1c0.7,0,1.3,0.2,1.8,0.6c0.5,0.4,0.7,0.9,0.7,1.5c0,1.4-0.9,2.6-2.8,3.6
			c-1.8,1-4.9,1.9-9.2,2.8c-1.3,2-2,3.7-2,5c0,1.7,0.9,2.5,2.7,2.5c3.1,0,6.9-3,11.3-9c0.2-0.3,0.4-0.5,0.6-0.5
			C1025.4,121.9,1025.4,121.9,1025.4,122z M1022.9,116.6c0-0.6-0.3-0.9-1-0.9c-1,0-2.4,0.7-4.1,2.2c-1.7,1.4-3.3,3.3-5,5.6
			c2.8-0.7,5.2-1.7,7.1-3.1C1021.9,119,1022.9,117.8,1022.9,116.6z"/>
		<path class="st1" d="M1035.3,110.6c0,0.8-1.2,2.3-3.7,4.6c-0.1,0.6-0.2,1.1-0.2,1.6c0,1.1,0.5,2.9,1.6,5.4
			c0.5,1.2,0.8,2.3,0.8,3.1c0,1.8-0.9,3.3-2.6,4.6c-1.7,1.3-3.7,1.9-6.1,1.9c-1.3,0-2.4-0.4-3.2-1.1s-1.2-1.8-1.2-3
			c0-1.5,0.5-2.9,1.6-4.3c1-1.4,2.1-2.1,3.2-2.1c0.2,0,0.4,0,0.5,0.1l2.3-2.9c0.7-0.8,1.6-2,2.8-3.5c0.3-1.4,0.8-2.5,1.5-3.5
			c0.7-1,1.4-1.5,2-1.5C1035.1,110.1,1035.3,110.3,1035.3,110.6z M1031.2,122.2c0-0.6,0-1.2-0.1-1.7c0-0.6-0.1-1.4-0.1-2.5
			c0-0.9,0-1.6,0.1-2.2c-1.1,1.4-2.7,3.3-4.7,5.9c0.4,0.3,0.6,0.7,0.6,1.1c0,1.2-0.9,1.9-2.8,2.3c-0.8,0.2-1.4,0.6-2,1.2
			c-0.6,0.7-0.8,1.3-0.8,2.1c0,0.8,0.3,1.4,0.8,2c0.6,0.5,1.3,0.8,2.1,0.8c1.6,0,3.2-1,4.7-2.9
			C1030.5,126.4,1031.2,124.4,1031.2,122.2z"/>
		<path class="st1" d="M1047.1,122c0,0.1-0.1,0.2-0.3,0.5l-1.3,1.7c-3.7,5.1-6.5,7.7-8.4,7.7c-0.9,0-1.7-0.3-2.3-1s-0.9-1.5-0.9-2.4
			c0-1.1,0.7-2.9,2-5.2l4.6-7.8c0.6,0.1,1.1,0.2,1.4,0.2c0.5,0,1.3-0.1,2.2-0.2l-6.7,10.9c-1,1.6-1.4,2.8-1.4,3.7
			c0,0.9,0.5,1.3,1.4,1.3c1.7,0,4.8-3.1,9.2-9.3c0.1-0.2,0.2-0.3,0.3-0.3C1047,121.8,1047.1,121.9,1047.1,122z M1046.7,109.9
			c0,0.7-0.3,1.3-0.9,1.9c-0.6,0.6-1.2,0.9-1.9,0.9c-0.9,0-1.3-0.4-1.3-1.3c0-0.6,0.3-1.3,0.9-1.9c0.6-0.6,1.2-0.9,1.9-0.9
			C1046.3,108.6,1046.7,109.1,1046.7,109.9z"/>
		<path class="st1" d="M1067.2,122c0,0.3-1.1,1.6-3.2,4c-2.4,2.6-5.4,4.9-9.2,7l-1.5,2.7c-2.7,4.9-5.6,8.7-8.9,11.3
			c-3.2,2.6-5.9,3.8-8.2,3.8c-0.8,0-1.5-0.3-2.1-0.8c-0.5-0.5-0.8-1.1-0.8-1.9c0-4,4.5-8.1,13.6-12.2c2-0.9,3.2-1.5,3.8-1.8l5-9.2
			c-2.2,2.9-3.7,4.7-4.6,5.6c-0.9,0.8-1.8,1.2-2.7,1.2c-1,0-1.9-0.4-2.6-1.3c-0.7-0.9-1.1-2-1.1-3.3c0-3.4,2.2-6.4,6.6-9.2
			c2.9-1.8,5.3-2.8,6.9-2.8c1.2,0,1.8,0.6,1.8,1.9c0,0.4-0.1,0.8-0.3,1.3l1.6-3c0.5,0.1,1,0.2,1.4,0.2c0.5,0,1.2-0.1,2.2-0.2
			c-0.1,0.2-1,1.6-2.6,4.4l-7.3,12.5c2.6-1.4,4.6-2.8,6.1-4.2c1.5-1.3,3.3-3.3,5.2-5.8c0.3-0.4,0.5-0.6,0.6-0.6
			C1067.2,121.9,1067.2,121.9,1067.2,122z M1050.4,134.7c-0.4,0.2-1.5,0.8-3.3,1.7c-8.9,4.4-13.4,8.4-13.4,11.9
			c0,0.6,0.2,1.1,0.7,1.5c0.4,0.4,1,0.6,1.7,0.6c2.1,0,4.2-1.1,6.3-3.3s4.6-6.1,7.6-11.8L1050.4,134.7z M1059.7,117.2
			c0-1-0.5-1.5-1.4-1.5c-1.8,0-4.1,1.8-7,5.3c-2.9,3.5-4.4,6.3-4.4,8.5c0,1.3,0.6,2,1.7,2c1.2,0,3.1-1.7,5.9-5.2
			C1057.9,121.8,1059.7,118.8,1059.7,117.2z"/>
		<path class="st1" d="M1090.7,122c0,0.4-1.4,2.3-4.3,5.7c-2.3,2.8-4.2,4.2-5.5,4.2c-0.9,0-1.6-0.3-2.2-1c-0.6-0.7-0.9-1.5-0.9-2.5
			c0-0.9,0.2-1.7,0.5-2.4c0.4-0.8,1.3-2.2,2.8-4.5c1.6-2.3,2.4-3.8,2.4-4.5c0-0.8-0.4-1.2-1.3-1.2c-2.9,0-7.2,5.3-13.2,15.9
			c-1-0.1-1.5-0.1-1.7-0.1c-0.7,0-1.3,0-1.9,0.1l4.6-7.2c2.6-4.1,3.9-6.7,3.9-7.8c0-0.6-0.2-0.9-0.7-0.9c-1,0-3,2.1-5.9,6.3
			c-0.2,0.3-0.3,0.4-0.4,0.4c-0.1,0-0.2-0.1-0.2-0.2c0-0.1,0.1-0.2,0.1-0.2l0.6-0.7c3-4,5-6,6-6c0.7,0,1.2,0.3,1.7,0.9
			c0.5,0.6,0.7,1.3,0.7,2.2c0,1.3-0.7,3-2.2,5.2c2.3-3.2,4.1-5.4,5.3-6.5c1.2-1.2,2.4-1.8,3.4-1.8c0.9,0,1.6,0.4,2.2,1.1
			s0.9,1.6,0.9,2.6c0,1.3-0.9,3.3-2.7,6c-1.8,2.8-2.8,4.5-2.8,5.3c0,0.8,0.4,1.2,1.2,1.2c1.7,0,4.7-3.1,9-9.3
			c0.1-0.2,0.2-0.3,0.3-0.3C1090.7,121.8,1090.7,121.9,1090.7,122z"/>
	</g>
	<circle class="st4" cx="1026.8" cy="120.8" r="110.2"/>
</g>
<g>
	<circle class="st5" cx="1091" cy="119" r="119"/>
	<circle class="st4" cx="1091.8" cy="119.8" r="110.2"/>
	<g>
		<path class="st1" d="M1071,91.9c0,0.9-0.9,2.3-2.8,4.1c-1.9,1.8-4.2,3.5-6.9,5.1c-0.4,1.1-0.9,3.1-1.6,6.1c-1.1,4.6-2.1,7.8-3,9.8
			c-0.9,1.9-2.4,3.9-4.5,5.9c-6.1,5.8-12.9,8.6-20.5,8.6c-2.2,0-4.1-0.4-5.7-1.1c-0.9,1.8-1.4,3.4-1.4,4.7c0,1.7,0.6,3.2,1.7,4.6
			c0.1,0.1,0.2,0.3,0.2,0.4c0,0.2-0.1,0.2-0.3,0.2c-0.5,0-0.9-0.6-1.5-1.8c-0.5-1.2-0.8-2.3-0.8-3.4c0-1.5,0.5-3.2,1.5-5
			c-4.1-2.1-6.1-5.7-6.1-10.9c0-3.3,1-6.6,2.9-9.8c2-3.3,4.7-6.2,8.2-8.8c4.5-3.3,9-5,13.4-5c2.4,0,4.3,0.7,5.7,2
			c1.4,1.3,2.1,3.2,2.1,5.5c0,1.2-0.2,2.5-0.5,3.8c2.9-1.9,5.4-3.5,7.6-4.9c1.4-3.1,3.2-5.7,5.3-7.9c2.1-2.2,4-3.3,5.6-3.3
			C1070.5,90.8,1071,91.1,1071,91.9z M1051.1,102.9c0-2.1-0.6-3.7-1.9-5c-1.3-1.2-3-1.9-5.1-1.9c-5.3,0-10.3,2.7-15.2,8.2
			c-4.9,5.5-7.4,11.1-7.4,17c0,3.8,1.4,6.6,4.2,8.2c1.3-2.2,3.2-4.6,5.7-7.2c-1.3-1.1-1.9-2.4-1.9-4c0-1.2,0.4-2.2,1.1-3
			c0.7-0.8,1.6-1.2,2.7-1.2c1.3,0,2,0.6,2,1.8c0,0.6-0.2,1.2-0.7,1.6c-0.5,0.5-1.1,0.7-1.7,0.7c-1,0-1.4-0.5-1.4-1.4
			c0-0.3,0.1-0.6,0.3-0.9c0.1-0.3,0.1-0.4,0.1-0.4c0-0.1-0.1-0.2-0.2-0.2c-0.3,0-0.7,0.4-1,1.1s-0.5,1.4-0.5,2.1
			c0,1.3,0.6,2.4,1.8,3.5c3.9-4.1,10.1-9,18.6-14.5C1050.9,105.6,1051.1,104.1,1051.1,102.9z M1058.4,102.8
			c-2.3,1.4-4.8,3.1-7.5,4.9c-1.3,4.1-3.5,7.8-6.8,10.9c-3.2,3.1-6.3,4.7-9.3,4.7c-0.9,0-1.9-0.2-3-0.7c-2.2,2.3-4.1,4.7-5.6,7.2
			c1.6,0.7,3.4,1.1,5.4,1.1c3.7,0,7.2-1,10.7-3.1c3.4-2.1,6.4-5,8.8-8.7c1.2-1.7,2.1-3.3,2.7-4.8c0.7-1.5,1.7-4.3,3.2-8.3
			C1057.5,105,1057.9,103.9,1058.4,102.8z M1050.1,108.2l-1.9,1.3c-7.4,5.1-12.7,9.3-15.9,12.7c0.8,0.4,1.7,0.6,2.6,0.6
			c2.7,0,5.6-1.4,8.6-4.3S1048.6,112.2,1050.1,108.2z M1070.4,92c0-0.5-0.3-0.7-0.8-0.7c-1.3,0-2.8,0.9-4.4,2.7
			c-1.6,1.8-2.9,3.9-3.7,6.3c2.6-1.6,4.7-3.2,6.4-4.7C1069.6,94,1070.4,92.8,1070.4,92z"/>
		<path class="st1" d="M1070,114.3l-0.2,0.4h-3.8l-6.5,11.2c-0.8,1.3-1.2,2.4-1.2,3.2c0,0.9,0.5,1.3,1.4,1.3c1.8,0,4.8-3.1,9-9.3
			c0.1-0.2,0.3-0.3,0.4-0.3c0.1,0,0.2,0.1,0.2,0.2c0,0.1-0.1,0.2-0.3,0.5l-1.3,1.7c-3.7,5.1-6.4,7.7-8.3,7.7c-0.9,0-1.7-0.3-2.3-1
			s-0.9-1.5-0.9-2.5c0-1.2,0.5-2.6,1.6-4.4l4.9-8.3h-3l0.3-0.4h2.9l3.4-5.7c0.6,0.2,1.1,0.2,1.7,0.2c0.5,0,1.1-0.1,1.7-0.2l-3.4,5.7
			H1070z"/>
		<path class="st1" d="M1085.8,121c0,0.2-0.6,0.9-1.8,2.1c-1.5,1.6-2.9,2.5-4.2,2.5c-1.5,0-2.2-0.9-2.2-2.6c0-0.5,0.1-1.2,0.4-2.1
			c-1.2,1.1-2.2,2.1-3,3.2c-0.8,1.1-2.1,3.2-4,6.4c-1-0.1-1.6-0.1-1.8-0.1c-0.1,0-0.7,0-1.8,0.1l4.8-7.8c2.4-3.9,3.6-6.3,3.6-7.3
			c0-0.5-0.2-0.8-0.7-0.8c-1.1,0-3.1,2.1-6,6.3c-0.2,0.3-0.3,0.4-0.5,0.4c-0.1,0-0.1-0.1-0.1-0.2c0-0.1,0.1-0.2,0.1-0.2l0.5-0.7
			c3-4,5.1-6,6.1-6c1.6,0,2.3,1,2.3,3c0,1.5-0.8,3.5-2.4,6c1-1.2,2-2.1,2.9-2.9c0.7-1.7,1.7-3.2,2.8-4.4c1.1-1.2,2.1-1.8,3-1.8
			c0.6,0,0.9,0.3,0.9,0.8c0,0.9-1.4,2.3-4.1,4c-0.4,0.3-1.1,0.7-1.9,1.2l-0.4,0.3c-0.3,0.9-0.4,1.6-0.4,2.2c0,1.6,0.6,2.5,1.8,2.5
			c1.5,0,3.2-1.3,5-3.8c0.4-0.4,0.6-0.6,0.7-0.6C1085.8,120.8,1085.8,120.9,1085.8,121z"/>
		<path class="st1" d="M1106.4,121c0,0.4-1.4,2.3-4.3,5.7c-2.3,2.8-4.1,4.2-5.5,4.2c-0.9,0-1.6-0.3-2.2-1c-0.6-0.7-0.9-1.5-0.9-2.5
			c0-1.1,0.3-2.2,0.9-3.4c-2,2.7-3.4,4.6-4.5,5.5c-1,1-2,1.4-3,1.4c-1,0-1.9-0.4-2.6-1.3s-1.1-2-1.1-3.4c0-3.8,2.6-7.1,7.9-10
			c2.3-1.3,4.2-1.9,5.6-1.9c1.2,0,1.8,0.6,1.8,1.8c0,0.3-0.1,0.8-0.2,1.3l1.5-2.8c0.6,0.1,1.1,0.2,1.6,0.2c0.5,0,1.2-0.1,2.1-0.2
			l-5.2,8.6c-1.8,3-2.7,5-2.7,5.9c0,0.9,0.4,1.4,1.1,1.4c0.8,0,2-0.9,3.8-2.7c1.7-1.8,3.5-4,5.3-6.6c0.1-0.2,0.2-0.3,0.3-0.3
			C1106.3,120.8,1106.4,120.9,1106.4,121z M1098.3,116.2c0-1-0.4-1.4-1.3-1.4c-1.8,0-4.2,1.8-7.1,5.3c-2.9,3.5-4.4,6.4-4.4,8.5
			c0,1.3,0.6,1.9,1.7,1.9c1.3,0,3.7-2.2,7-6.7C1097,120,1098.3,117.5,1098.3,116.2z"/>
		<path class="st1" d="M1117.2,114.3l-0.2,0.4h-3.8l-6.5,11.2c-0.8,1.3-1.2,2.4-1.2,3.2c0,0.9,0.5,1.3,1.4,1.3c1.8,0,4.8-3.1,9-9.3
			c0.1-0.2,0.3-0.3,0.4-0.3c0.1,0,0.2,0.1,0.2,0.2c0,0.1-0.1,0.2-0.3,0.5l-1.3,1.7c-3.7,5.1-6.4,7.7-8.3,7.7c-0.9,0-1.7-0.3-2.3-1
			s-0.9-1.5-0.9-2.5c0-1.2,0.5-2.6,1.6-4.4l4.9-8.3h-3l0.3-0.4h2.9l3.4-5.7c0.6,0.2,1.1,0.2,1.7,0.2c0.5,0,1.1-0.1,1.7-0.2l-3.4,5.7
			H1117.2z"/>
		<path class="st1" d="M1131.1,121c0,0.1-0.2,0.3-0.5,0.8l-1.3,1.6c-4,5-7.5,7.5-10.4,7.5c-1.4,0-2.5-0.5-3.4-1.5s-1.4-2.2-1.4-3.7
			c0-3.5,2.5-6.6,7.4-9.3c2.6-1.4,4.7-2.1,6.3-2.1c0.7,0,1.3,0.2,1.8,0.6c0.5,0.4,0.7,0.9,0.7,1.5c0,1.4-0.9,2.6-2.8,3.6
			c-1.8,1-4.9,1.9-9.2,2.8c-1.3,2-2,3.7-2,5c0,1.7,0.9,2.5,2.7,2.5c3.1,0,6.9-3,11.3-9c0.2-0.3,0.4-0.5,0.6-0.5
			C1131.1,120.9,1131.1,120.9,1131.1,121z M1128.6,115.6c0-0.6-0.3-0.9-1-0.9c-1,0-2.4,0.7-4.1,2.2c-1.7,1.4-3.3,3.3-5,5.6
			c2.8-0.7,5.2-1.7,7.1-3.1C1127.7,118,1128.6,116.8,1128.6,115.6z"/>
		<path class="st1" d="M1151.2,121c0,0.3-1.1,1.6-3.2,4c-2.4,2.6-5.4,4.9-9.2,7l-1.5,2.7c-2.7,4.9-5.6,8.7-8.9,11.3
			c-3.2,2.6-5.9,3.8-8.2,3.8c-0.8,0-1.5-0.3-2.1-0.8c-0.5-0.5-0.8-1.1-0.8-1.9c0-4,4.5-8.1,13.6-12.2c2-0.9,3.2-1.5,3.8-1.8l5-9.2
			c-2.2,2.9-3.7,4.7-4.6,5.6c-0.9,0.8-1.8,1.2-2.7,1.2c-1,0-1.9-0.4-2.6-1.3c-0.7-0.9-1.1-2-1.1-3.3c0-3.4,2.2-6.4,6.6-9.2
			c2.9-1.8,5.3-2.8,6.9-2.8c1.2,0,1.8,0.6,1.8,1.9c0,0.4-0.1,0.8-0.3,1.3l1.6-3c0.5,0.1,1,0.2,1.4,0.2c0.5,0,1.2-0.1,2.2-0.2
			c-0.1,0.2-1,1.6-2.6,4.4l-7.3,12.5c2.6-1.4,4.6-2.8,6.1-4.2c1.5-1.3,3.3-3.3,5.2-5.8c0.3-0.4,0.5-0.6,0.6-0.6
			C1151.1,120.9,1151.2,120.9,1151.2,121z M1134.4,133.7c-0.4,0.2-1.5,0.8-3.3,1.7c-8.9,4.4-13.4,8.4-13.4,11.9
			c0,0.6,0.2,1.1,0.7,1.5c0.4,0.4,1,0.6,1.7,0.6c2.1,0,4.2-1.1,6.3-3.3s4.6-6.1,7.6-11.8L1134.4,133.7z M1143.6,116.2
			c0-1-0.5-1.5-1.4-1.5c-1.8,0-4.1,1.8-7,5.3c-2.9,3.5-4.4,6.3-4.4,8.5c0,1.3,0.6,2,1.7,2c1.2,0,3.1-1.7,5.9-5.2
			C1141.9,120.8,1143.6,117.8,1143.6,116.2z"/>
		<path class="st1" d="M1169.6,121c0,0.3-1.1,1.6-3.2,4c-2.4,2.6-5.5,5-9.3,7.1l-1.4,2.6c-2.8,5.1-5.8,8.9-8.9,11.3
			c-3.2,2.6-5.9,3.8-8.3,3.8c-0.8,0-1.5-0.3-2-0.8c-0.5-0.5-0.8-1.1-0.8-1.9c0-3.9,4.5-8,13.6-12.2c0.7-0.4,1.9-0.9,3.3-1.6l0.4-0.3
			l5.2-9.2c-2,2.8-3.5,4.6-4.4,5.5c-0.9,0.9-1.8,1.3-2.8,1.3c-0.8,0-1.5-0.3-2.1-1c-0.6-0.7-0.9-1.5-0.9-2.4c0-1.1,0.7-2.9,2.1-5.2
			l4.5-7.6c0.4,0.1,1,0.1,1.6,0.1c0.5,0,1.2-0.1,2.1-0.2l-5.8,9.4c-1.6,2.7-2.5,4.4-2.5,5.2c0,0.9,0.4,1.3,1.2,1.3
			c2.1,0,5.4-3.7,9.7-11.2l2.7-4.6c0.4,0.1,1,0.1,1.6,0.1c0.5,0,1.2-0.1,2-0.2c-2.4,3.8-5.7,9.5-9.8,16.9c2.4-1.2,4.4-2.6,6-4
			c1.6-1.4,3.5-3.5,5.5-6.1c0.3-0.4,0.4-0.5,0.5-0.5C1169.6,120.9,1169.6,120.9,1169.6,121z M1152.7,133.7c-0.3,0.2-1.4,0.7-3.3,1.7
			c-8.9,4.4-13.3,8.4-13.3,11.9c0,1.5,0.8,2.2,2.5,2.2c2.1,0,4.1-1.1,6.2-3.4c2.1-2.2,4.6-6.2,7.6-11.8L1152.7,133.7z"/>
	</g>
</g>
<g>
	<circle class="st0" cx="123" cy="707" r="119"/>
	<g>
		<path class="st1" d="M99.7,679.5c0,0.5-0.3,0.7-0.8,0.7h-0.5c-1.1-0.1-2-0.2-2.6-0.2c-5,0-11,2.2-17.8,6.6
			c-3.3,2.1-6.1,4.3-8.3,6.5c-2.2,2.1-6.3,6.7-12.4,13.6c-7.2,8.2-12.6,13.6-16.2,16.2c-1.9,1.4-3,2.1-3.2,2.1
			c-0.1,0-0.2-0.1-0.2-0.2c0,0,0.2-0.3,0.6-0.9c3.5-4.5,6.4-9.8,8.9-15.9c2.5-6.1,3.7-11.3,3.7-15.4c0-6.6-2.7-9.9-8-9.9
			c-2.1,0-4.5,0.7-7.3,2.2c-2.8,1.4-5.3,3.3-7.5,5.6c-2.5,2.5-4.4,5.3-5.9,8.4c-1.5,3.1-2.2,6-2.2,8.7c0,2.4,0.7,4.3,2,5.7
			c1.3,1.4,3.1,2.1,5.3,2.1c4.3,0,8.6-2.8,12.7-8.3c2.9-4,4.4-7.5,4.4-10.6c0-1.4-0.3-2.5-1-3.4c-0.7-0.8-1.6-1.2-2.8-1.2
			c-0.7,0-1.3,0.2-2,0.5c-0.7,0.3-1,0.6-1,0.9c0,0.1,0.1,0.2,0.2,0.2h0.2c0.5-0.1,0.8-0.1,0.9-0.1c0.9,0,1.3,0.5,1.3,1.4
			c0,0.6-0.2,1.1-0.7,1.6s-1,0.7-1.6,0.7c-1.2,0-1.8-0.6-1.8-1.9c0-1,0.4-1.9,1.3-2.7c0.9-0.8,1.9-1.1,3.1-1.1
			c1.3,0,2.4,0.5,3.2,1.4c0.8,0.9,1.2,2.1,1.2,3.6c0,3.8-1.9,8-5.7,12.6c-3.9,4.6-7.8,7-11.9,7c-2.6,0-4.7-0.9-6.3-2.7
			c-1.6-1.8-2.5-4.1-2.5-7c0-5.4,2.7-10.8,8.2-16.1c5.5-5.3,11-8,16.5-8c3.3,0,6,1.1,8,3.4c2,2.3,3.1,5.3,3.1,9
			c0,4-1.1,8.2-3.4,12.6c-2.2,4.4-5.9,9.5-10.9,15.3c-0.2,0.2-0.3,0.4-0.3,0.4l0.1,0.1c0.3,0,1.6-0.9,3.7-2.7c1.6-1.4,3.3-3,5-4.9
			c1.6-1.7,5.7-6.3,12.4-13.9c3.9-4.5,7.4-8,10.4-10.6c3-2.6,6.4-4.9,10.1-7.1c6.1-3.5,11.4-5.2,16.1-5.2
			C98.9,678.7,99.7,678.9,99.7,679.5z"/>
		<path class="st1" d="M80.3,712c0,0.4-1.4,2.3-4.3,5.7c-2.3,2.8-4.1,4.2-5.5,4.2c-0.9,0-1.6-0.3-2.2-1c-0.6-0.7-0.9-1.5-0.9-2.5
			c0-1.1,0.3-2.2,0.9-3.4c-2,2.7-3.4,4.6-4.5,5.5c-1,1-2,1.4-3,1.4c-1,0-1.9-0.4-2.6-1.3s-1.1-2-1.1-3.4c0-3.8,2.6-7.1,7.9-10
			c2.3-1.3,4.2-1.9,5.6-1.9c1.2,0,1.8,0.6,1.8,1.8c0,0.3-0.1,0.8-0.2,1.3l1.5-2.8c0.6,0.1,1.1,0.2,1.6,0.2c0.5,0,1.2-0.1,2.1-0.2
			l-5.2,8.6c-1.8,3-2.7,5-2.7,5.9c0,0.9,0.4,1.4,1.1,1.4c0.8,0,2-0.9,3.8-2.7c1.7-1.8,3.5-4,5.3-6.6c0.1-0.2,0.2-0.3,0.3-0.3
			C80.3,711.8,80.3,711.9,80.3,712z M72.3,707.2c0-1-0.4-1.4-1.3-1.4c-1.8,0-4.2,1.8-7.1,5.3c-2.9,3.5-4.4,6.4-4.4,8.5
			c0,1.3,0.6,1.9,1.7,1.9c1.3,0,3.7-2.2,7-6.7C70.9,711,72.3,708.5,72.3,707.2z"/>
		<path class="st1" d="M97.1,712c0,0.2-0.6,0.9-1.8,2.1c-1.5,1.6-2.9,2.5-4.2,2.5c-1.5,0-2.2-0.9-2.2-2.6c0-0.5,0.1-1.2,0.4-2.1
			c-1.2,1.1-2.2,2.1-3,3.2c-0.8,1.1-2.1,3.2-4,6.4c-1-0.1-1.6-0.1-1.8-0.1c-0.1,0-0.7,0-1.8,0.1l4.8-7.8c2.4-3.9,3.6-6.3,3.6-7.3
			c0-0.5-0.2-0.8-0.7-0.8c-1.1,0-3.1,2.1-6,6.3c-0.2,0.3-0.3,0.4-0.5,0.4c-0.1,0-0.1-0.1-0.1-0.2c0-0.1,0.1-0.2,0.1-0.2l0.5-0.7
			c3-4,5.1-6,6.1-6c1.6,0,2.3,1,2.3,3c0,1.5-0.8,3.5-2.4,6c1-1.2,2-2.1,2.9-2.9c0.7-1.7,1.7-3.2,2.8-4.4c1.1-1.2,2.1-1.8,3-1.8
			c0.6,0,0.9,0.3,0.9,0.8c0,0.9-1.4,2.3-4.1,4c-0.4,0.3-1.1,0.7-1.9,1.2l-0.4,0.3c-0.3,0.9-0.4,1.6-0.4,2.2c0,1.6,0.6,2.5,1.8,2.5
			c1.5,0,3.2-1.3,5-3.8c0.4-0.4,0.6-0.6,0.7-0.6C97,711.8,97.1,711.9,97.1,712z"/>
		<path class="st1" d="M115.8,712c0,0.5-1.4,2.3-4.3,5.7c-2.3,2.8-4.2,4.2-5.6,4.2c-0.9,0-1.6-0.3-2.2-1c-0.6-0.7-0.9-1.5-0.9-2.5
			c0-0.8,0.4-1.8,1.1-3.2l-0.6,0.8c-1.8,2.3-3.1,3.8-4,4.6c-0.9,0.9-1.8,1.3-2.6,1.3c-0.9,0-1.6-0.3-2.2-1s-0.9-1.5-0.9-2.5
			c0-1.1,0.4-2.4,1.3-3.9l5.3-9c0.7,0.1,1.2,0.2,1.6,0.2c0.4,0,1-0.1,2-0.2l-7,11.5c-0.7,1.2-1.1,2.2-1.1,3.1c0,0.9,0.4,1.3,1.1,1.3
			c2,0,5.1-3.7,9.5-11l2.9-4.9c0.6,0.1,1.1,0.2,1.5,0.2c0.5,0,1.2-0.1,2.1-0.2l-4.7,7.6c-2.2,3.6-3.3,6-3.3,7c0,0.8,0.4,1.3,1.2,1.3
			c1.6,0,4.1-2.5,7.6-7.4l0.9-1.3l0.5-0.6c0.1-0.2,0.2-0.3,0.3-0.3C115.8,711.8,115.8,711.9,115.8,712z"/>
		<path class="st1" d="M148.4,712c0,0.1-0.1,0.2-0.3,0.5l-1.3,1.7c-3.7,5.1-6.4,7.7-8.2,7.7c-0.9,0-1.7-0.3-2.3-1
			c-0.6-0.7-0.9-1.6-0.9-2.6c0-1.1,0.4-2.3,1.1-3.5c0.1-0.2,0.8-1.3,2.1-3.1c1.6-2.3,2.5-3.9,2.5-4.6c0-0.8-0.4-1.2-1.2-1.2
			c-2.6,0-7,5.3-13.3,15.9c-0.4-0.1-0.9-0.1-1.6-0.1c-0.8,0-1.5,0-2.1,0.1l4.2-6.6c2.7-4.3,4.1-7,4.1-8c0-0.9-0.4-1.3-1.1-1.3
			c-1.1,0-2.8,1.5-5.3,4.6c-2.4,3.1-4.9,6.8-7.3,11.3c-0.4-0.1-1-0.1-1.7-0.1c-0.8,0-1.4,0-2,0.1l4.2-6.6c2.9-4.5,4.3-7.3,4.3-8.4
			c0-0.6-0.2-0.9-0.7-0.9c-1,0-2.9,2.1-6,6.3c-0.2,0.3-0.4,0.4-0.5,0.4c-0.1,0-0.1-0.1-0.1-0.2c0-0.2,0.9-1.4,2.7-3.7
			c1.8-2.2,3.1-3.3,4.1-3.3c0.6,0,1.2,0.3,1.6,0.9c0.5,0.6,0.7,1.3,0.7,2.1c0,1.1-0.6,2.7-1.7,4.7c3.5-5.2,6.1-7.7,7.9-7.7
			c0.8,0,1.5,0.3,2,1c0.5,0.7,0.8,1.5,0.8,2.5c0,1.1-0.5,2.5-1.6,4.2c3.7-5.2,6.5-7.7,8.3-7.7c0.8,0,1.5,0.4,2.1,1.1
			c0.6,0.7,0.9,1.6,0.9,2.6c0,1.2-0.5,2.6-1.4,4.2c0,0-0.9,1.3-2.5,3.8c-1,1.4-1.4,2.5-1.4,3.2c0,0.8,0.4,1.2,1.2,1.2
			c1.5,0,4-2.5,7.6-7.4l0.9-1.3l0.5-0.6c0.1-0.2,0.2-0.3,0.3-0.3C148.4,711.8,148.4,711.9,148.4,712z"/>
		<path class="st1" d="M169.1,712c0,0.4-1.4,2.3-4.3,5.7c-2.3,2.8-4.1,4.2-5.5,4.2c-0.9,0-1.6-0.3-2.2-1c-0.6-0.7-0.9-1.5-0.9-2.5
			c0-1.1,0.3-2.2,0.9-3.4c-2,2.7-3.4,4.6-4.5,5.5c-1,1-2,1.4-3,1.4c-1,0-1.9-0.4-2.6-1.3s-1.1-2-1.1-3.4c0-3.8,2.6-7.1,7.9-10
			c2.3-1.3,4.2-1.9,5.6-1.9c1.2,0,1.8,0.6,1.8,1.8c0,0.3-0.1,0.8-0.2,1.3l1.5-2.8c0.6,0.1,1.1,0.2,1.6,0.2c0.5,0,1.2-0.1,2.1-0.2
			l-5.2,8.6c-1.8,3-2.7,5-2.7,5.9c0,0.9,0.4,1.4,1.1,1.4c0.8,0,2-0.9,3.8-2.7c1.7-1.8,3.5-4,5.3-6.6c0.1-0.2,0.2-0.3,0.3-0.3
			C169,711.8,169.1,711.9,169.1,712z M161,707.2c0-1-0.4-1.4-1.3-1.4c-1.8,0-4.2,1.8-7.1,5.3c-2.9,3.5-4.4,6.4-4.4,8.5
			c0,1.3,0.6,1.9,1.7,1.9c1.3,0,3.7-2.2,7-6.7C159.6,711,161,708.5,161,707.2z M162.5,699.6c0,0.7-0.3,1.4-0.8,1.9
			c-0.5,0.6-1.1,0.9-1.8,0.9c-1,0-1.4-0.5-1.4-1.4c0-0.7,0.3-1.3,0.9-1.8c0.6-0.5,1.2-0.8,1.9-0.8
			C162,698.4,162.5,698.8,162.5,699.6z M167.4,699.6c0,0.7-0.3,1.4-0.8,1.9c-0.5,0.6-1.1,0.9-1.8,0.9c-1,0-1.4-0.4-1.4-1.3
			c0-0.7,0.3-1.3,0.9-1.8c0.6-0.6,1.2-0.8,1.9-0.8C167,698.4,167.4,698.8,167.4,699.6z"/>
		<path class="st1" d="M185.8,712c0,0.2-0.6,0.9-1.8,2.1c-1.5,1.6-2.9,2.5-4.2,2.5c-1.5,0-2.2-0.9-2.2-2.6c0-0.5,0.1-1.2,0.4-2.1
			c-1.2,1.1-2.2,2.1-3,3.2c-0.8,1.1-2.1,3.2-4,6.4c-1-0.1-1.6-0.1-1.8-0.1c-0.1,0-0.7,0-1.8,0.1l4.8-7.8c2.4-3.9,3.6-6.3,3.6-7.3
			c0-0.5-0.2-0.8-0.7-0.8c-1.1,0-3.1,2.1-6,6.3c-0.2,0.3-0.3,0.4-0.5,0.4c-0.1,0-0.1-0.1-0.1-0.2c0-0.1,0.1-0.2,0.1-0.2l0.5-0.7
			c3-4,5.1-6,6.1-6c1.6,0,2.3,1,2.3,3c0,1.5-0.8,3.5-2.4,6c1-1.2,2-2.1,2.9-2.9c0.7-1.7,1.7-3.2,2.8-4.4c1.1-1.2,2.1-1.8,3-1.8
			c0.6,0,0.9,0.3,0.9,0.8c0,0.9-1.4,2.3-4.1,4c-0.4,0.3-1.1,0.7-1.9,1.2l-0.4,0.3c-0.3,0.9-0.4,1.6-0.4,2.2c0,1.6,0.6,2.5,1.8,2.5
			c1.5,0,3.2-1.3,5-3.8c0.4-0.4,0.6-0.6,0.7-0.6C185.8,711.8,185.8,711.9,185.8,712z"/>
		<path class="st1" d="M201.3,691.3c-0.2,0.3-0.4,0.7-0.7,1.2c-0.5,0.8-1.3,2-2.3,3.7c-0.5,0.8-1.2,2.1-2.3,3.8l-5,8.1
			c-1.7,2.7-3.1,5.2-4.3,7.4c-1.3,2.5-2.4,4.4-3.2,5.7l-0.4,0.6c-0.5-0.1-1-0.2-1.6-0.2c-0.4,0-1.1,0.1-1.9,0.2
			c0.4-0.8,0.9-1.6,1.5-2.6l3.4-5.9c0.5-0.9,1.3-2.2,2.3-4l10.8-18c0.8,0.2,1.4,0.2,1.8,0.2C199.9,691.5,200.5,691.4,201.3,691.3z
			 M203.9,712c0,0.1-0.1,0.2-0.3,0.5l-1.3,1.7c-3.7,5.1-6.5,7.7-8.4,7.7c-0.8,0-1.6-0.3-2.2-0.9s-1-1.2-1-1.9c0-0.6,0.5-2,1.6-4.2
			l0-0.1c0.4-0.7,0.6-1.3,0.6-1.6c0-0.4-0.3-0.8-1-1.2c-0.7,0.3-1.4,0.5-1.8,0.5c-0.7,0-1-0.2-1-0.6c0-0.3,0.3-0.5,1-0.5
			c0.6,0,1.2,0.1,1.7,0.3c1-0.4,2.5-1.9,4.7-4.4c1.2-1.3,2.3-2,3.5-2c1.5,0,2.2,0.7,2.2,2.1c0,0.9-0.4,1.9-1.1,2.8
			c-0.8,0.9-1.5,1.4-2.2,1.4c-0.8,0-1.3-0.4-1.3-1.1c0-0.7,0.6-1.5,1.9-2.3c0.5-0.3,0.8-0.8,0.8-1.4c0-0.5-0.3-0.7-0.9-0.7
			c-0.8,0-1.9,0.7-3.2,2.2c-1.6,1.9-2.9,3-4,3.4c2,0.9,3,2,3,3.3c0,0.7-0.5,2-1.4,4c-0.4,0.8-0.6,1.4-0.6,1.7c0,0.5,0.3,0.8,1,0.8
			c1.8,0,4.8-3.1,9-9.3c0.1-0.2,0.3-0.3,0.4-0.3C203.8,711.8,203.9,711.9,203.9,712z"/>
		<path class="st1" d="M218.6,712c0,0.1-0.2,0.3-0.5,0.8l-1.3,1.6c-4,5-7.5,7.5-10.4,7.5c-1.4,0-2.5-0.5-3.4-1.5s-1.4-2.2-1.4-3.7
			c0-3.5,2.5-6.6,7.4-9.3c2.6-1.4,4.7-2.1,6.3-2.1c0.7,0,1.3,0.2,1.8,0.6c0.5,0.4,0.7,0.9,0.7,1.5c0,1.4-0.9,2.6-2.8,3.6
			c-1.8,1-4.9,1.9-9.2,2.8c-1.3,2-2,3.7-2,5c0,1.7,0.9,2.5,2.7,2.5c3.1,0,6.9-3,11.3-9c0.2-0.3,0.4-0.5,0.6-0.5
			C218.6,711.9,218.6,711.9,218.6,712z M216.1,706.6c0-0.6-0.3-0.9-1-0.9c-1,0-2.4,0.7-4.1,2.2c-1.7,1.4-3.3,3.3-5,5.6
			c2.8-0.7,5.2-1.7,7.1-3.1C215.2,709,216.1,707.8,216.1,706.6z"/>
	</g>
	<g>
		<circle class="st2" cx="123.8" cy="707.8" r="110.2"/>
	</g>
</g>
<g>
	<circle class="st3" cx="124" cy="679" r="119"/>
	<g>
		<path class="st1" d="M127.6,660.1c0,1-0.1,2-0.4,3.1c-0.2,1.1-0.5,1.7-0.7,1.7c-0.1,0-0.2-0.1-0.2-0.2c0-0.1,0-0.3,0.1-0.4
			c0.4-1.2,0.7-2.6,0.7-4.2c0-2.5-0.7-4.4-2.2-5.9c-1.5-1.5-3.5-2.2-5.9-2.2c-4.7,0-9.3,2.2-13.7,6.7c1.7,3.1,2.5,6.4,2.5,9.9
			c0,6.4-2.5,11.8-7.4,16.3c-4.9,4.5-10.9,6.7-18,6.7c-2.2,0-5.2-0.3-9-0.9c-3.3,0.6-6.5,0.9-9.5,0.9c-5.2,0-7.7-0.5-7.7-1.6
			c0-0.5,0.6-1,1.9-1.3s2.7-0.6,4.4-0.6c2,0,6.1,0.7,12.1,2c4.1-1.1,7.3-2.8,9.6-5.1c2.3-2.2,5.8-7.1,10.5-14.7
			c2.9-4.6,6-8.5,9.4-11.7c-2.9-4.8-7.5-7.2-13.9-7.2c-6.6,0-12.7,2.6-18.2,7.8c-2.8,2.6-5,5.5-6.7,8.7c-1.7,3.2-2.5,6.1-2.5,8.7
			c0,2.1,0.7,3.8,2,5.1c1.3,1.3,3.1,1.9,5.3,1.9c3.7,0,7.6-2,11.6-6s6-7.9,6-11.6c0-1.4-0.4-2.5-1.2-3.4c-0.8-0.9-1.8-1.3-3.1-1.3
			c-1.4,0-2.2,0.2-2.2,0.7c0,0.1,0.1,0.2,0.3,0.2c0.1,0,0.2,0,0.3-0.1h0.4c1,0,1.4,0.4,1.4,1.3c0,0.6-0.2,1.2-0.7,1.7
			c-0.5,0.5-1.1,0.7-1.7,0.7c-1.2,0-1.8-0.6-1.8-1.9c0-0.9,0.4-1.6,1.2-2.3c0.8-0.6,1.7-0.9,2.8-0.9c1.4,0,2.6,0.5,3.5,1.4
			c0.9,0.9,1.3,2.2,1.3,3.7c0,3.9-2.1,8-6.2,12.1c-4.1,4.1-8.1,6.2-12.1,6.2c-2.7,0-5-0.9-6.7-2.7c-1.8-1.8-2.6-4.1-2.6-7
			c0-6.1,3-11.5,9-16.3c6-4.8,12.8-7.2,20.3-7.2c6.4,0,11.3,2.4,14.5,7.1c4.8-4.4,9.6-6.6,14.5-6.6c2.5,0,4.5,0.8,6,2.4
			S127.6,657.5,127.6,660.1z M72.3,690.5c-5.4-0.8-9.4-1.1-12.1-1.1c-2.3,0-3.5,0.2-3.5,0.7c0,0.7,2.6,1,7.7,1
			C67.3,691,70,690.9,72.3,690.5z M106.1,666.4c0-2.5-0.5-4.8-1.6-7c-2.6,3-5,6.8-7.1,11.3c-2.8,6-5.6,10.4-8.6,13
			c-3,2.7-7.5,4.9-13.4,6.5c2.5,0.5,5.1,0.8,7.9,0.8c7.5,0,13.5-3.6,18.2-10.9C104.6,675.5,106.1,670.9,106.1,666.4z"/>
		<path class="st1" d="M123.4,681c0,0.1-0.2,0.3-0.5,0.8l-1.3,1.6c-4,5-7.5,7.5-10.4,7.5c-1.4,0-2.5-0.5-3.4-1.5
			c-0.9-1-1.4-2.2-1.4-3.7c0-3.5,2.5-6.6,7.4-9.3c2.6-1.4,4.7-2.1,6.3-2.1c0.7,0,1.3,0.2,1.8,0.6c0.5,0.4,0.7,0.9,0.7,1.5
			c0,1.4-0.9,2.6-2.8,3.6c-1.8,1-4.9,1.9-9.2,2.8c-1.3,2-2,3.7-2,5c0,1.7,0.9,2.5,2.7,2.5c3.1,0,6.9-3,11.3-9
			c0.2-0.3,0.4-0.5,0.6-0.5C123.4,680.9,123.4,680.9,123.4,681z M120.9,675.6c0-0.6-0.3-0.9-1-0.9c-1,0-2.4,0.7-4.1,2.2
			c-1.7,1.4-3.3,3.3-5,5.6c2.8-0.7,5.2-1.7,7.1-3.1C119.9,678,120.9,676.8,120.9,675.6z"/>
		<path class="st1" d="M133.3,669.6c0,0.8-1.2,2.3-3.7,4.6c-0.1,0.6-0.2,1.1-0.2,1.6c0,1.1,0.5,2.9,1.6,5.4c0.5,1.2,0.8,2.3,0.8,3.1
			c0,1.8-0.9,3.3-2.6,4.6c-1.7,1.3-3.7,1.9-6.1,1.9c-1.3,0-2.4-0.4-3.2-1.1c-0.8-0.8-1.2-1.8-1.2-3c0-1.5,0.5-2.9,1.6-4.3
			c1-1.4,2.1-2.1,3.2-2.1c0.2,0,0.4,0,0.5,0.1l2.3-2.9c0.7-0.8,1.6-2,2.8-3.5c0.3-1.4,0.8-2.5,1.5-3.5c0.7-1,1.4-1.5,2-1.5
			C133.1,669.1,133.3,669.3,133.3,669.6z M129.2,681.2c0-0.6,0-1.2-0.1-1.7c0-0.6-0.1-1.4-0.1-2.5c0-0.9,0-1.6,0.1-2.2
			c-1.1,1.4-2.7,3.3-4.7,5.9c0.4,0.3,0.6,0.7,0.6,1.1c0,1.2-0.9,1.9-2.8,2.3c-0.8,0.2-1.4,0.6-2,1.2c-0.6,0.7-0.8,1.3-0.8,2.1
			c0,0.8,0.3,1.4,0.8,2c0.6,0.5,1.3,0.8,2.1,0.8c1.6,0,3.2-1,4.7-2.9C128.5,685.4,129.2,683.4,129.2,681.2z"/>
		<path class="st1" d="M145.1,681c0,0.1-0.1,0.2-0.3,0.5l-1.3,1.7c-3.7,5.1-6.5,7.7-8.4,7.7c-0.9,0-1.7-0.3-2.3-1s-0.9-1.5-0.9-2.4
			c0-1.1,0.7-2.9,2-5.2l4.6-7.8c0.6,0.1,1.1,0.2,1.4,0.2c0.5,0,1.3-0.1,2.2-0.2l-6.7,10.9c-1,1.6-1.4,2.8-1.4,3.7
			c0,0.9,0.5,1.3,1.4,1.3c1.7,0,4.8-3.1,9.2-9.3c0.1-0.2,0.2-0.3,0.3-0.3C145,680.8,145.1,680.9,145.1,681z M144.7,668.9
			c0,0.7-0.3,1.3-0.9,1.9c-0.6,0.6-1.2,0.9-1.9,0.9c-0.9,0-1.3-0.4-1.3-1.3c0-0.6,0.3-1.3,0.9-1.9c0.6-0.6,1.2-0.9,1.9-0.9
			C144.3,667.6,144.7,668.1,144.7,668.9z"/>
		<path class="st1" d="M165.2,681c0,0.3-1.1,1.6-3.2,4c-2.4,2.6-5.4,4.9-9.2,7l-1.5,2.7c-2.7,4.9-5.6,8.7-8.9,11.3
			c-3.2,2.6-5.9,3.8-8.2,3.8c-0.8,0-1.5-0.3-2.1-0.8c-0.5-0.5-0.8-1.1-0.8-1.9c0-4,4.5-8.1,13.6-12.2c2-0.9,3.2-1.5,3.8-1.8l5-9.2
			c-2.2,2.9-3.7,4.7-4.6,5.6c-0.9,0.8-1.8,1.2-2.7,1.2c-1,0-1.9-0.5-2.6-1.3c-0.7-0.9-1.1-2-1.1-3.3c0-3.4,2.2-6.4,6.6-9.2
			c2.9-1.8,5.3-2.8,6.9-2.8c1.2,0,1.8,0.6,1.8,1.9c0,0.4-0.1,0.8-0.3,1.3l1.6-3c0.5,0.1,1,0.2,1.4,0.2c0.5,0,1.3-0.1,2.2-0.2
			c-0.1,0.2-1,1.6-2.6,4.4l-7.3,12.5c2.6-1.4,4.6-2.8,6.1-4.2c1.5-1.3,3.3-3.3,5.2-5.8c0.3-0.4,0.5-0.6,0.6-0.6
			C165.2,680.9,165.2,680.9,165.2,681z M148.4,693.7c-0.4,0.2-1.5,0.8-3.3,1.7c-8.9,4.4-13.4,8.4-13.4,11.9c0,0.6,0.2,1.1,0.7,1.5
			s1,0.6,1.7,0.6c2.1,0,4.2-1.1,6.3-3.3s4.6-6.1,7.6-11.8L148.4,693.7z M157.7,676.2c0-1-0.5-1.5-1.4-1.5c-1.8,0-4.1,1.8-7,5.3
			c-2.9,3.5-4.4,6.3-4.4,8.5c0,1.3,0.6,2,1.7,2c1.2,0,3.1-1.7,5.9-5.2C155.9,680.8,157.7,677.8,157.7,676.2z"/>
		<path class="st1" d="M188.7,681c0,0.4-1.4,2.3-4.3,5.7c-2.3,2.8-4.2,4.2-5.5,4.2c-0.9,0-1.6-0.3-2.2-1c-0.6-0.7-0.9-1.5-0.9-2.5
			c0-0.9,0.2-1.7,0.5-2.4c0.4-0.8,1.3-2.2,2.8-4.5c1.6-2.3,2.4-3.8,2.4-4.5c0-0.8-0.4-1.2-1.3-1.2c-2.9,0-7.2,5.3-13.2,15.9
			c-1-0.1-1.5-0.1-1.7-0.1c-0.7,0-1.3,0-1.9,0.1l4.6-7.2c2.6-4.1,3.9-6.7,3.9-7.8c0-0.6-0.2-0.9-0.7-0.9c-1,0-3,2.1-5.9,6.3
			c-0.2,0.3-0.3,0.4-0.4,0.4c-0.1,0-0.2-0.1-0.2-0.2c0-0.1,0.1-0.2,0.1-0.2l0.6-0.7c3-4,5-6,6-6c0.7,0,1.2,0.3,1.7,0.9
			c0.5,0.6,0.7,1.3,0.7,2.2c0,1.3-0.7,3-2.2,5.2c2.3-3.2,4.1-5.4,5.3-6.5c1.2-1.2,2.4-1.8,3.4-1.8c0.9,0,1.6,0.4,2.2,1.1
			s0.9,1.6,0.9,2.6c0,1.3-0.9,3.3-2.7,6c-1.8,2.8-2.8,4.5-2.8,5.3c0,0.8,0.4,1.2,1.2,1.2c1.7,0,4.7-3.1,9-9.3
			c0.1-0.2,0.2-0.3,0.3-0.3C188.7,680.8,188.7,680.9,188.7,681z"/>
	</g>
	<circle class="st4" cx="124.8" cy="679.8" r="110.2"/>
</g>
<g>
	<circle class="st5" cx="124" cy="660" r="119"/>
	<circle class="st4" cx="124.8" cy="660.8" r="110.2"/>
	<g>
		<path class="st1" d="M103,632.9c0,0.9-0.9,2.3-2.8,4.1c-1.9,1.8-4.2,3.5-6.9,5.1c-0.4,1.1-0.9,3.1-1.6,6.1c-1.1,4.6-2.1,7.8-3,9.8
			c-0.9,1.9-2.4,3.9-4.5,5.9c-6.1,5.8-12.9,8.6-20.5,8.6c-2.2,0-4.1-0.4-5.7-1.1c-0.9,1.8-1.4,3.4-1.4,4.7c0,1.7,0.6,3.2,1.7,4.6
			c0.1,0.1,0.2,0.3,0.2,0.4c0,0.2-0.1,0.2-0.3,0.2c-0.5,0-0.9-0.6-1.5-1.8c-0.5-1.2-0.8-2.3-0.8-3.4c0-1.5,0.5-3.2,1.5-5
			c-4.1-2.1-6.1-5.7-6.1-10.9c0-3.3,1-6.6,2.9-9.8c2-3.3,4.7-6.2,8.2-8.8c4.5-3.3,9-5,13.4-5c2.4,0,4.3,0.7,5.7,2
			c1.4,1.3,2.1,3.2,2.1,5.5c0,1.2-0.2,2.5-0.5,3.8c2.9-1.9,5.4-3.5,7.6-4.9c1.4-3.1,3.2-5.7,5.3-7.9c2.1-2.2,4-3.3,5.6-3.3
			C102.5,631.8,103,632.1,103,632.9z M83.1,643.9c0-2.1-0.6-3.7-1.9-5c-1.3-1.2-3-1.9-5.1-1.9c-5.3,0-10.3,2.7-15.2,8.2
			c-4.9,5.5-7.4,11.1-7.4,17c0,3.8,1.4,6.6,4.2,8.2c1.3-2.2,3.2-4.6,5.7-7.2c-1.3-1.1-1.9-2.4-1.9-4c0-1.2,0.4-2.2,1.1-3
			c0.7-0.8,1.6-1.2,2.7-1.2c1.3,0,2,0.6,2,1.8c0,0.6-0.2,1.2-0.7,1.6c-0.5,0.5-1.1,0.7-1.7,0.7c-1,0-1.4-0.5-1.4-1.4
			c0-0.3,0.1-0.6,0.3-0.9c0.1-0.3,0.1-0.4,0.1-0.4c0-0.1-0.1-0.2-0.2-0.2c-0.3,0-0.7,0.4-1,1.1s-0.5,1.4-0.5,2.1
			c0,1.3,0.6,2.4,1.8,3.5c3.9-4.1,10.1-9,18.6-14.5C82.9,646.6,83.1,645.1,83.1,643.9z M90.4,643.8c-2.3,1.4-4.8,3.1-7.5,4.9
			c-1.3,4.1-3.5,7.8-6.8,10.9c-3.2,3.1-6.3,4.7-9.3,4.7c-0.9,0-1.9-0.2-3-0.7c-2.2,2.3-4.1,4.7-5.6,7.2c1.6,0.7,3.4,1.1,5.4,1.1
			c3.7,0,7.2-1,10.7-3.1c3.4-2.1,6.4-5,8.8-8.7c1.2-1.7,2.1-3.3,2.7-4.8c0.7-1.5,1.7-4.3,3.2-8.3C89.5,646,89.9,644.9,90.4,643.8z
			 M82.1,649.2l-1.9,1.3c-7.4,5.1-12.7,9.3-15.9,12.7c0.8,0.4,1.7,0.6,2.6,0.6c2.7,0,5.6-1.4,8.6-4.3S80.6,653.2,82.1,649.2z
			 M102.4,633c0-0.5-0.3-0.7-0.8-0.7c-1.3,0-2.8,0.9-4.4,2.7c-1.6,1.8-2.9,3.9-3.7,6.3c2.6-1.6,4.7-3.2,6.4-4.7
			C101.6,635,102.4,633.8,102.4,633z"/>
		<path class="st1" d="M102,655.3l-0.2,0.4h-3.8l-6.5,11.2c-0.8,1.3-1.2,2.4-1.2,3.2c0,0.9,0.5,1.3,1.4,1.3c1.8,0,4.8-3.1,9-9.3
			c0.1-0.2,0.3-0.3,0.4-0.3c0.1,0,0.2,0.1,0.2,0.2c0,0.1-0.1,0.2-0.3,0.5l-1.3,1.7c-3.7,5.1-6.4,7.7-8.3,7.7c-0.9,0-1.7-0.3-2.3-1
			s-0.9-1.5-0.9-2.5c0-1.2,0.5-2.6,1.6-4.4l4.9-8.3h-3l0.3-0.4h2.9l3.4-5.7c0.6,0.2,1.1,0.2,1.7,0.2c0.5,0,1.1-0.1,1.7-0.2l-3.4,5.7
			H102z"/>
		<path class="st1" d="M117.8,662c0,0.2-0.6,0.9-1.8,2.1c-1.5,1.6-2.9,2.5-4.2,2.5c-1.5,0-2.2-0.9-2.2-2.6c0-0.5,0.1-1.2,0.4-2.1
			c-1.2,1.1-2.2,2.1-3,3.2c-0.8,1.1-2.1,3.2-4,6.4c-1-0.1-1.6-0.1-1.8-0.1c-0.1,0-0.7,0-1.8,0.1l4.8-7.8c2.4-3.9,3.6-6.3,3.6-7.3
			c0-0.5-0.2-0.8-0.7-0.8c-1.1,0-3.1,2.1-6,6.3c-0.2,0.3-0.3,0.4-0.5,0.4c-0.1,0-0.1-0.1-0.1-0.2c0-0.1,0.1-0.2,0.1-0.2l0.5-0.7
			c3-4,5.1-6,6.1-6c1.6,0,2.3,1,2.3,3c0,1.5-0.8,3.5-2.4,6c1-1.2,2-2.1,2.9-2.9c0.7-1.7,1.7-3.2,2.8-4.4c1.1-1.2,2.1-1.8,3-1.8
			c0.6,0,0.9,0.3,0.9,0.8c0,0.9-1.4,2.3-4.1,4c-0.4,0.3-1.1,0.7-1.9,1.2l-0.4,0.3c-0.3,0.9-0.4,1.6-0.4,2.2c0,1.6,0.6,2.5,1.8,2.5
			c1.5,0,3.2-1.3,5-3.8c0.4-0.4,0.6-0.6,0.7-0.6C117.8,661.8,117.8,661.9,117.8,662z"/>
		<path class="st1" d="M138.4,662c0,0.4-1.4,2.3-4.3,5.7c-2.3,2.8-4.1,4.2-5.5,4.2c-0.9,0-1.6-0.3-2.2-1c-0.6-0.7-0.9-1.5-0.9-2.5
			c0-1.1,0.3-2.2,0.9-3.4c-2,2.7-3.4,4.6-4.5,5.5c-1,1-2,1.4-3,1.4c-1,0-1.9-0.4-2.6-1.3s-1.1-2-1.1-3.4c0-3.8,2.6-7.1,7.9-10
			c2.3-1.3,4.2-1.9,5.6-1.9c1.2,0,1.8,0.6,1.8,1.8c0,0.3-0.1,0.8-0.2,1.3l1.5-2.8c0.6,0.1,1.1,0.2,1.6,0.2c0.5,0,1.2-0.1,2.1-0.2
			l-5.2,8.6c-1.8,3-2.7,5-2.7,5.9c0,0.9,0.4,1.4,1.1,1.4c0.8,0,2-0.9,3.8-2.7c1.7-1.8,3.5-4,5.3-6.6c0.1-0.2,0.2-0.3,0.3-0.3
			C138.3,661.8,138.4,661.9,138.4,662z M130.3,657.2c0-1-0.4-1.4-1.3-1.4c-1.8,0-4.2,1.8-7.1,5.3c-2.9,3.5-4.4,6.4-4.4,8.5
			c0,1.3,0.6,1.9,1.7,1.9c1.3,0,3.7-2.2,7-6.7C129,661,130.3,658.5,130.3,657.2z"/>
		<path class="st1" d="M149.2,655.3l-0.2,0.4h-3.8l-6.5,11.2c-0.8,1.3-1.2,2.4-1.2,3.2c0,0.9,0.5,1.3,1.4,1.3c1.8,0,4.8-3.1,9-9.3
			c0.1-0.2,0.3-0.3,0.4-0.3c0.1,0,0.2,0.1,0.2,0.2c0,0.1-0.1,0.2-0.3,0.5l-1.3,1.7c-3.7,5.1-6.4,7.7-8.3,7.7c-0.9,0-1.7-0.3-2.3-1
			s-0.9-1.5-0.9-2.5c0-1.2,0.5-2.6,1.6-4.4l4.9-8.3h-3l0.3-0.4h2.9l3.4-5.7c0.6,0.2,1.1,0.2,1.7,0.2c0.5,0,1.1-0.1,1.7-0.2l-3.4,5.7
			H149.2z"/>
		<path class="st1" d="M163.1,662c0,0.1-0.2,0.3-0.5,0.8l-1.3,1.6c-4,5-7.5,7.5-10.4,7.5c-1.4,0-2.5-0.5-3.4-1.5s-1.4-2.2-1.4-3.7
			c0-3.5,2.5-6.6,7.4-9.3c2.6-1.4,4.7-2.1,6.3-2.1c0.7,0,1.3,0.2,1.8,0.6c0.5,0.4,0.7,0.9,0.7,1.5c0,1.4-0.9,2.6-2.8,3.6
			c-1.8,1-4.9,1.9-9.2,2.8c-1.3,2-2,3.7-2,5c0,1.7,0.9,2.5,2.7,2.5c3.1,0,6.9-3,11.3-9c0.2-0.3,0.4-0.5,0.6-0.5
			C163.1,661.9,163.1,661.9,163.1,662z M160.6,656.6c0-0.6-0.3-0.9-1-0.9c-1,0-2.4,0.7-4.1,2.2c-1.7,1.4-3.3,3.3-5,5.6
			c2.8-0.7,5.2-1.7,7.1-3.1S160.6,657.8,160.6,656.6z"/>
		<path class="st1" d="M183.2,662c0,0.3-1.1,1.6-3.2,4c-2.4,2.6-5.4,4.9-9.2,7l-1.5,2.7c-2.7,4.9-5.6,8.7-8.9,11.3
			c-3.2,2.6-5.9,3.8-8.2,3.8c-0.8,0-1.5-0.3-2.1-0.8c-0.5-0.5-0.8-1.1-0.8-1.9c0-4,4.5-8.1,13.6-12.2c2-0.9,3.2-1.5,3.8-1.8l5-9.2
			c-2.2,2.9-3.7,4.7-4.6,5.6c-0.9,0.8-1.8,1.2-2.7,1.2c-1,0-1.9-0.4-2.6-1.3c-0.7-0.9-1.1-2-1.1-3.3c0-3.4,2.2-6.4,6.6-9.2
			c2.9-1.8,5.3-2.8,6.9-2.8c1.2,0,1.8,0.6,1.8,1.9c0,0.4-0.1,0.8-0.3,1.3l1.6-3c0.5,0.1,1,0.2,1.4,0.2c0.5,0,1.3-0.1,2.2-0.2
			c-0.1,0.2-1,1.6-2.6,4.4l-7.3,12.5c2.6-1.4,4.6-2.8,6.1-4.2c1.5-1.3,3.3-3.3,5.2-5.8c0.3-0.4,0.5-0.6,0.6-0.6
			C183.1,661.9,183.2,661.9,183.2,662z M166.4,674.7c-0.4,0.2-1.5,0.8-3.3,1.7c-8.9,4.4-13.4,8.4-13.4,11.9c0,0.6,0.2,1.1,0.7,1.5
			s1,0.6,1.7,0.6c2.1,0,4.2-1.1,6.3-3.3s4.6-6.1,7.6-11.8L166.4,674.7z M175.6,657.2c0-1-0.5-1.5-1.4-1.5c-1.8,0-4.1,1.8-7,5.3
			c-2.9,3.5-4.4,6.3-4.4,8.5c0,1.3,0.6,2,1.7,2c1.2,0,3.1-1.7,5.9-5.2C173.9,661.8,175.6,658.8,175.6,657.2z"/>
		<path class="st1" d="M193.2,662c0,0.1-0.1,0.2-0.3,0.5l-1.3,1.7c-3.7,5.1-6.5,7.7-8.4,7.7c-0.9,0-1.7-0.3-2.3-1s-0.9-1.5-0.9-2.4
			c0-1.1,0.7-2.9,2-5.2l4.6-7.8c0.6,0.1,1.1,0.2,1.4,0.2c0.5,0,1.3-0.1,2.2-0.2l-6.7,10.9c-1,1.6-1.4,2.8-1.4,3.7
			c0,0.9,0.5,1.3,1.4,1.3c1.7,0,4.8-3.1,9.2-9.3c0.1-0.2,0.2-0.3,0.3-0.3C193.2,661.8,193.2,661.9,193.2,662z M192.8,649.9
			c0,0.7-0.3,1.3-0.9,1.9c-0.6,0.6-1.2,0.9-1.9,0.9c-0.9,0-1.3-0.4-1.3-1.3c0-0.6,0.3-1.3,0.9-1.9c0.6-0.6,1.2-0.9,1.9-0.9
			C192.4,648.6,192.8,649.1,192.8,649.9z"/>
	</g>
</g>
<g>
	<circle class="st6" cx="124" cy="630" r="119"/>
	<g>
		<path class="st1" d="M102.2,613.7c0,1-0.1,2.1-0.4,3.3c-0.3,1.2-0.5,1.8-0.8,1.8c-0.2,0-0.3-0.1-0.3-0.3c0-0.1,0-0.1,0.1-0.3
			c0.5-1.4,0.8-2.8,0.8-4.4c0-2.5-0.7-4.4-2.2-5.9c-1.5-1.5-3.4-2.2-5.8-2.2c-3.3,0-6.6,1.1-10,3.2c2.9,2.3,4.3,4.8,4.3,7.5
			c0,2.3-0.9,4.2-2.7,5.8c-1.8,1.6-4.2,2.6-7.2,3c2,1.2,3,2.9,3,5.1c0,1.5-0.5,3.7-1.6,6.8c-0.7,2-1,3.6-1,4.7c0,1.2,0.4,2.2,1.3,3
			c0.8,0.8,1.9,1.2,3.1,1.2c1.3,0,2.4-0.4,3.6-1.2c0.3-0.2,0.4-0.2,0.5-0.2c0.2,0,0.2,0.1,0.2,0.2c0,0.3-0.5,0.7-1.6,1.1
			c-1.1,0.4-2,0.7-2.8,0.7c-1.9,0-3.5-0.7-4.7-2.2c-1.3-1.5-1.9-3.3-1.9-5.6c0-1.6,0.7-4.4,2.1-8.5c0.4-1,0.5-1.9,0.5-2.6
			c0-0.9-0.4-1.7-1.1-2.3c-1.3,0.1-2,0.2-2.1,0.2c-1.9,0-2.9-0.2-2.9-0.7c0-0.3,0.5-0.5,1.5-0.5c1.2,0,2.3,0.2,3.5,0.7
			c2.3-0.4,4.2-1.4,5.7-3.2c1.5-1.8,2.2-3.9,2.2-6.3c0-1.9-0.7-3.7-2.2-5.5l-0.3-0.4c-4.3,3.2-8.3,8.8-12.1,16.8
			c-2.3,4.8-4.4,8.3-6.3,10.4c-1.9,2.1-4.6,4.1-8.1,5.8c-4.1,2-7.7,3-10.9,3c-2.6,0-4.8-0.6-6.5-1.8c-1.7-1.2-2.6-2.7-2.6-4.5
			c0-1,0.3-1.9,0.9-2.6c0.6-0.7,1.3-1.1,2.1-1.1c1.2,0,1.8,0.7,1.8,2c0,0.7-0.2,1.2-0.6,1.7c-0.4,0.5-0.9,0.7-1.5,0.7
			c-1,0-1.5-0.5-1.5-1.6c0-0.4,0-0.6-0.1-0.6c-0.3,0-0.5,0.5-0.5,1.6c0,1.6,0.8,3,2.4,4c1.6,1.1,3.6,1.6,6,1.6
			c4.3,0,8.1-1.6,11.6-4.7c1.5-1.4,2.8-2.8,3.9-4.2c1.2-1.6,3.7-5.4,7.7-11.4c2-3,4.3-5.9,7-8.9c2.7-3,4.9-5.1,6.8-6.4
			c-3-2.6-7.5-3.9-13.4-3.9c-8.2,0-15.4,3-21.5,8.9c-5,4.9-7.5,9.5-7.5,13.8c0,2.2,0.7,3.9,2.1,5.2s3.3,1.9,5.7,1.9
			c3.9,0,8-1.9,12.2-5.7s6.3-7.4,6.3-11c0-2.8-1.5-4.2-4.4-4.2c-2.9,0-6,1.6-9.4,4.9c-3.3,3.2-5,6.3-5,9.1c0,0.7,0.2,1.3,0.7,1.8
			c0.5,0.5,1,0.8,1.6,0.8c0.3,0,0.5,0.1,0.5,0.3c0,0.2-0.2,0.2-0.6,0.2c-0.9,0-1.7-0.4-2.4-1.3c-0.6-0.8-1-1.9-1-3.1
			c0-3,1.7-6,5-8.9c3.3-2.9,6.8-4.3,10.3-4.3c3.4,0,5,1.6,5,4.7c0,3.8-2.1,7.6-6.4,11.5s-8.5,5.8-12.7,5.8c-2.7,0-4.9-0.8-6.5-2.4
			c-1.6-1.6-2.4-3.8-2.4-6.5c0-5.5,3.1-10.6,9.4-15.1c6.2-4.6,13.1-6.8,20.7-6.8c5.7,0,10.6,1.3,14.5,3.8c3.6-2.2,7-3.3,10.4-3.3
			c2.6,0,4.7,0.8,6.3,2.3C101.4,609.1,102.2,611.2,102.2,613.7z"/>
		<path class="st1" d="M105.1,635c0,0.1-0.2,0.3-0.5,0.8l-1.3,1.6c-4,5-7.5,7.5-10.4,7.5c-1.4,0-2.5-0.5-3.4-1.5
			c-0.9-1-1.4-2.2-1.4-3.7c0-3.5,2.5-6.6,7.4-9.3c2.6-1.4,4.7-2.1,6.3-2.1c0.7,0,1.3,0.2,1.8,0.6c0.5,0.4,0.7,0.9,0.7,1.5
			c0,1.4-0.9,2.6-2.8,3.6c-1.8,1-4.9,1.9-9.2,2.8c-1.3,2-2,3.7-2,5c0,1.7,0.9,2.5,2.7,2.5c3.1,0,6.9-3,11.3-9
			c0.2-0.3,0.4-0.5,0.6-0.5C105,634.9,105.1,634.9,105.1,635z M102.6,629.6c0-0.6-0.3-0.9-1-0.9c-1,0-2.4,0.7-4.1,2.2
			c-1.7,1.4-3.3,3.3-5,5.6c2.8-0.7,5.2-1.7,7.1-3.1C101.6,632,102.6,630.8,102.6,629.6z"/>
		<path class="st1" d="M114.9,623.6c0,0.8-1.2,2.3-3.7,4.6c-0.1,0.6-0.2,1.1-0.2,1.6c0,1.1,0.5,2.9,1.6,5.4c0.5,1.2,0.8,2.3,0.8,3.1
			c0,1.8-0.9,3.3-2.6,4.6c-1.7,1.3-3.7,1.9-6.1,1.9c-1.3,0-2.4-0.4-3.2-1.1c-0.8-0.8-1.2-1.8-1.2-3c0-1.5,0.5-2.9,1.6-4.3
			c1-1.4,2.1-2.1,3.2-2.1c0.2,0,0.4,0,0.5,0.1l2.3-2.9c0.7-0.8,1.6-2,2.8-3.5c0.3-1.4,0.8-2.5,1.5-3.5c0.7-1,1.4-1.5,2-1.5
			C114.8,623.1,114.9,623.3,114.9,623.6z M110.9,635.2c0-0.6,0-1.2-0.1-1.7c0-0.6-0.1-1.4-0.1-2.5c0-0.9,0-1.6,0.1-2.2
			c-1.1,1.4-2.7,3.3-4.7,5.9c0.4,0.3,0.6,0.7,0.6,1.1c0,1.2-0.9,1.9-2.8,2.3c-0.8,0.2-1.4,0.6-2,1.2c-0.6,0.7-0.8,1.3-0.8,2.1
			c0,0.8,0.3,1.4,0.8,2c0.6,0.5,1.3,0.8,2.1,0.8c1.6,0,3.2-1,4.7-2.9C110.1,639.4,110.9,637.4,110.9,635.2z"/>
		<path class="st1" d="M130.7,633c0,3.2-2,6.1-5.9,8.7c-3.2,2.1-5.7,3.2-7.6,3.2c-1.3,0-1.9-0.6-1.9-1.8c0-0.4,0.1-0.8,0.3-1.4
			l-11.2,18.7c-0.7-0.2-1.2-0.2-1.7-0.2c-0.6,0-1.3,0.1-1.9,0.4l24.1-39.6c0.5,0.2,1,0.3,1.6,0.3c0.5,0,1.2-0.1,1.9-0.3l-8.7,14.1
			c2.1-2.8,3.6-4.6,4.6-5.4c0.9-0.9,1.9-1.3,2.8-1.3c1,0,1.9,0.4,2.6,1.3S130.7,631.6,130.7,633z M128.5,630.6
			c0-1.3-0.6-1.9-1.7-1.9c-1.4,0-3.8,2.3-7.2,6.9c-2.6,3.6-3.9,6-3.9,7.3c0,1,0.5,1.5,1.4,1.5c1.8,0,4.1-1.8,7-5.3
			C127.1,635.7,128.5,632.8,128.5,630.6z"/>
		<path class="st1" d="M150,635c0,0.3-0.6,1-1.7,2.2c-1.7,1.7-3.3,2.6-4.7,2.6c-0.6,0-1.1-0.1-1.6-0.4c-2.6,3.7-5,5.5-7.3,5.5
			c-1.2,0-2.2-0.5-3-1.5c-0.8-1-1.2-2.1-1.2-3.5c0-3,2-5.9,5.9-8.7c2.8-2,5.1-3,6.9-3c1.7,0,2.5,0.9,2.5,2.7c0,2.2-1.2,5-3.5,8.1
			c0.4,0.2,0.8,0.4,1.3,0.4c0.9,0,1.9-0.4,3.1-1.2c1.2-0.8,2.1-1.8,2.9-2.9c0.2-0.3,0.4-0.4,0.5-0.4C150,634.9,150,634.9,150,635z
			 M145.2,631c0-1.6-0.7-2.4-2.1-2.4c-1.8,0-3.9,1.7-6.5,5.1c-2.6,3.4-3.8,6.3-3.8,8.6c0,1.3,0.6,2,1.9,2c2.1,0,4.4-1.7,6.9-5.2
			c-0.6-0.6-0.8-1.3-0.8-1.9c0-1,0.4-1.9,1.1-3s1.5-1.5,2.2-1.5c0.3,0,0.5,0.2,0.6,0.6C145.1,632.6,145.2,631.9,145.2,631z"/>
		<path class="st1" d="M173.5,635c0,0.4-1.4,2.3-4.3,5.7c-2.3,2.8-4.2,4.2-5.5,4.2c-0.9,0-1.6-0.3-2.2-1c-0.6-0.7-0.9-1.5-0.9-2.5
			c0-0.9,0.2-1.7,0.5-2.4c0.4-0.8,1.3-2.2,2.8-4.5c1.6-2.3,2.4-3.8,2.4-4.5c0-0.8-0.4-1.2-1.3-1.2c-2.9,0-7.2,5.3-13.2,15.9
			c-1-0.1-1.5-0.1-1.7-0.1c-0.7,0-1.3,0-1.9,0.1l4.6-7.2c2.6-4.1,3.9-6.7,3.9-7.8c0-0.6-0.2-0.9-0.7-0.9c-1,0-3,2.1-5.9,6.3
			c-0.2,0.3-0.3,0.4-0.4,0.4c-0.1,0-0.2-0.1-0.2-0.2c0-0.1,0.1-0.2,0.1-0.2l0.6-0.7c3-4,5-6,6-6c0.7,0,1.2,0.3,1.7,0.9
			s0.7,1.3,0.7,2.2c0,1.3-0.7,3-2.2,5.2c2.3-3.2,4.1-5.4,5.3-6.5c1.2-1.2,2.4-1.8,3.4-1.8c0.9,0,1.6,0.4,2.2,1.1s0.9,1.6,0.9,2.6
			c0,1.3-0.9,3.3-2.7,6c-1.8,2.8-2.8,4.5-2.8,5.3c0,0.8,0.4,1.2,1.2,1.2c1.7,0,4.7-3.1,9-9.3c0.1-0.2,0.2-0.3,0.3-0.3
			C173.5,634.8,173.5,634.9,173.5,635z"/>
		<path class="st1" d="M183.4,623.6c0,0.8-1.2,2.3-3.7,4.6c-0.1,0.6-0.2,1.1-0.2,1.6c0,1.1,0.5,2.9,1.6,5.4c0.5,1.2,0.8,2.3,0.8,3.1
			c0,1.8-0.9,3.3-2.6,4.6c-1.7,1.3-3.7,1.9-6.1,1.9c-1.3,0-2.4-0.4-3.2-1.1c-0.8-0.8-1.2-1.8-1.2-3c0-1.5,0.5-2.9,1.6-4.3
			c1-1.4,2.1-2.1,3.2-2.1c0.2,0,0.4,0,0.5,0.1l2.3-2.9c0.7-0.8,1.6-2,2.8-3.5c0.3-1.4,0.8-2.5,1.5-3.5c0.7-1,1.4-1.5,2-1.5
			C183.2,623.1,183.4,623.3,183.4,623.6z M179.3,635.2c0-0.6,0-1.2-0.1-1.7c0-0.6-0.1-1.4-0.1-2.5c0-0.9,0-1.6,0.1-2.2
			c-1.1,1.4-2.7,3.3-4.7,5.9c0.4,0.3,0.6,0.7,0.6,1.1c0,1.2-0.9,1.9-2.8,2.3c-0.8,0.2-1.4,0.6-2,1.2c-0.6,0.7-0.8,1.3-0.8,2.1
			c0,0.8,0.3,1.4,0.8,2c0.6,0.5,1.3,0.8,2.1,0.8c1.6,0,3.2-1,4.7-2.9C178.6,639.4,179.3,637.4,179.3,635.2z"/>
		<path class="st1" d="M195.2,635c0,0.1-0.1,0.2-0.3,0.5l-1.3,1.7c-3.7,5.1-6.5,7.7-8.4,7.7c-0.9,0-1.7-0.3-2.3-1s-0.9-1.5-0.9-2.4
			c0-1.1,0.7-2.9,2-5.2l4.6-7.8c0.6,0.1,1.1,0.2,1.4,0.2c0.5,0,1.3-0.1,2.2-0.2l-6.7,10.9c-1,1.6-1.4,2.8-1.4,3.7
			c0,0.9,0.5,1.3,1.4,1.3c1.7,0,4.8-3.1,9.2-9.3c0.1-0.2,0.2-0.3,0.3-0.3C195.2,634.8,195.2,634.9,195.2,635z M194.8,622.9
			c0,0.7-0.3,1.3-0.9,1.9c-0.6,0.6-1.2,0.9-1.9,0.9c-0.9,0-1.3-0.4-1.3-1.3c0-0.6,0.3-1.3,0.9-1.9c0.6-0.6,1.2-0.9,1.9-0.9
			C194.4,621.6,194.8,622.1,194.8,622.9z"/>
		<path class="st1" d="M211.7,635c0,0.2-0.6,1-1.8,2.3c-1.7,1.8-3.2,2.7-4.5,2.7c-0.9,0-1.6-0.5-2.1-1.4c-1.7,2.4-3.2,4.1-4.2,5
			c-1.1,0.9-2.2,1.4-3.3,1.4c-1,0-1.8-0.3-2.5-1c-0.7-0.7-1-1.5-1-2.5c0-1.2,0.7-2.8,2-5l4.6-7.8c1,0.1,1.6,0.1,1.9,0.1
			c0.7,0,1.3,0,1.7-0.1l-6.1,9.9c-1.3,2.2-2,3.8-2,4.6c0,0.9,0.5,1.4,1.6,1.4c1,0,1.9-0.4,2.9-1.3c1-0.9,2.4-2.5,4.3-5
			c-0.2-0.6-0.3-1.1-0.3-1.6c0-1.8,0.5-3.6,1.6-5.5c1.1-1.9,2.1-2.8,3.2-2.8c0.5,0,0.7,0.3,0.7,0.8c0,1.5-1.6,4.5-4.9,9.1
			c0.4,0.9,1,1.3,1.9,1.3c1.5,0,3.3-1.3,5.4-4c0.4-0.5,0.6-0.7,0.8-0.7C211.6,634.8,211.7,634.9,211.7,635z"/>
	</g>
	<g>
		<circle class="st2" cx="124.8" cy="630.8" r="110.2"/>
	</g>
</g>
<circle class="st7" cx="124" cy="123" r="119"/>
<g>
	<path class="st1" d="M100,99.1c0,0.4-0.2,0.5-0.6,0.5c-0.2,0-0.8-0.1-2-0.4c-2.1-0.4-3.8-0.6-5.2-0.6c-3.1,1-5.9,2.8-8.3,5.6
		c-2.4,2.8-5.2,7.2-8.2,13.4c-4.7,9.5-10.8,15.1-18.2,16.8c1.5,0.2,2.9,0.4,4,0.4c3.6,0,6.6-1.2,9.1-3.5c2.4-2.2,4.3-4.6,5.9-7.1
		c0.2-0.3,0.3-0.4,0.4-0.4c0.1,0,0.2,0,0.2,0.1c0,0.3-1.1,1.8-3.4,4.5c-2.1,2.6-4,4.3-5.7,5.3c-1.7,1-3.8,1.5-6.3,1.5
		c-1.4,0-3.2-0.2-5.2-0.6c-1.3,0.4-2.7,0.6-4.3,0.6c-1.1,0-1.7-0.2-1.7-0.6c0-0.5,0.8-0.7,2.3-0.7c1.1,0,2.3,0.1,3.7,0.3
		c3-0.7,5.3-1.9,6.9-3.6s4.5-6.2,9-13.5H61c-4.8,5-8.5,8.6-11.1,10.8c-6.1,5-11.9,7.4-17.3,7.4c-3.1,0-5.7-0.7-7.9-2.2
		c-2.2-1.4-3.2-3.2-3.2-5.3c0-1.1,0.3-2,1-2.8c0.7-0.8,1.5-1.1,2.4-1.1c1.3,0,1.9,0.6,1.9,1.8c0,0.6-0.2,1.2-0.7,1.7
		c-0.4,0.5-0.9,0.7-1.5,0.7c-0.9,0-1.4-0.4-1.4-1.3l0.1-0.6c0-0.1,0.1-0.2,0.1-0.3c0-0.2-0.1-0.3-0.3-0.3c-0.2,0-0.4,0.2-0.6,0.7
		c-0.2,0.5-0.3,1-0.3,1.5c0,1.9,1,3.5,3,4.8c2,1.3,4.5,2,7.4,2c4.2,0,8.8-2.1,13.8-6.2c1.2-0.9,2.4-2.1,3.8-3.6
		c2.8-2.9,5-5.2,6.7-6.9l0.9-0.9h-5.7l0.4-0.5c1.9,0,3.8,0,5.8,0.1c5.7-6.4,11.3-11,16.7-14c5.4-2.9,11.1-4.4,17.1-4.5
		c1.4-0.3,2.7-0.4,3.9-0.4C98.7,97.8,100,98.2,100,99.1z M68.7,104.4c0,0.2-0.4,0.7-1.1,1.6c-2,2.3-3.9,3.4-5.7,3.4
		c-1.1,0-2.1-0.4-2.8-1.2c-0.7-0.8-1.1-1.8-1.1-3.1c0-1.1,0.6-2.9,1.9-5.3c0.6-1.1,0.9-2.1,0.9-2.8c0-1-0.5-1.8-1.6-2.5
		c-1.1-0.7-2.4-1-4-1c-4.5,0-8.6,1.7-12.4,5.2c-3.8,3.4-5.7,7.2-5.7,11.2c0,2,0.6,3.7,1.9,5s2.9,1.9,5,1.9c2.2,0,4.4-0.8,6.7-2.4
		c2.2-1.6,3.8-3.5,4.7-5.8c0.1-0.2,0.1-0.3,0.2-0.3c0.2,0,0.3,0.1,0.3,0.3c0,0.4-0.3,1.1-1,2.2c-0.7,1-1.4,1.9-2.1,2.6
		c-2.6,2.6-5.6,3.9-8.9,3.9c-2.2,0-4-0.7-5.4-2.1s-2-3.2-2-5.4c0-4.1,2-7.9,6-11.5c4-3.5,8.3-5.3,12.9-5.3c2.1,0,3.7,0.5,4.8,1.5
		c1.2,1,1.7,2.4,1.7,4.2c0,1.3-0.5,2.9-1.4,4.7c-0.8,1.7-1.3,2.8-1.3,3.4c0,1.4,0.9,2.2,2.6,2.2c2,0,4-1.5,6.1-4.4
		c0.2-0.2,0.3-0.4,0.4-0.4C68.6,104.2,68.7,104.3,68.7,104.4z M90.7,98.7c-5.1,0.3-9.8,1.7-14.2,4.4c-4.4,2.7-9.4,7.2-15.1,13.5
		h11.1c2.5-4.4,5.5-8.3,9.1-11.7C85.1,101.5,88.2,99.4,90.7,98.7z"/>
	<path class="st1" d="M90.2,123c0,3.2-2,6.1-5.9,8.7c-3.2,2.1-5.7,3.2-7.6,3.2c-1.3,0-1.9-0.6-1.9-1.8c0-0.4,0.1-0.8,0.3-1.4
		l-11.2,18.7c-0.7-0.2-1.2-0.2-1.7-0.2c-0.6,0-1.3,0.1-1.9,0.4L84.4,111c0.5,0.2,1,0.3,1.6,0.3c0.5,0,1.2-0.1,1.9-0.3L79.2,125
		c2.1-2.8,3.6-4.6,4.6-5.4c0.9-0.9,1.9-1.3,2.8-1.3c1,0,1.9,0.4,2.6,1.3S90.2,121.6,90.2,123z M88.1,120.6c0-1.3-0.6-1.9-1.7-1.9
		c-1.4,0-3.8,2.3-7.2,6.9c-2.6,3.6-3.9,6-3.9,7.3c0,1,0.5,1.5,1.4,1.5c1.8,0,4.1-1.8,7-5.3C86.6,125.7,88.1,122.8,88.1,120.6z"/>
	<path class="st1" d="M106.1,123c0,3.2-2,6.1-5.9,8.7c-3.2,2.1-5.7,3.2-7.6,3.2c-1.3,0-1.9-0.6-1.9-1.8c0-0.4,0.1-0.8,0.3-1.4
		l-11.2,18.7c-0.7-0.2-1.2-0.2-1.7-0.2c-0.6,0-1.3,0.1-1.9,0.4l24.1-39.6c0.5,0.2,1,0.3,1.6,0.3c0.5,0,1.2-0.1,1.9-0.3L95.1,125
		c2.1-2.8,3.6-4.6,4.6-5.4c0.9-0.9,1.9-1.3,2.8-1.3c1,0,1.9,0.4,2.6,1.3S106.1,121.6,106.1,123z M104,120.6c0-1.3-0.6-1.9-1.7-1.9
		c-1.4,0-3.8,2.3-7.2,6.9c-2.6,3.6-3.9,6-3.9,7.3c0,1,0.5,1.5,1.4,1.5c1.8,0,4.1-1.8,7-5.3C102.5,125.7,104,122.8,104,120.6z"/>
	<path class="st1" d="M123.5,104.3c-8.2,13.7-13,21.7-14.3,24.1c-1.4,2.4-2,4-2,4.8c0,0.9,0.4,1.3,1.1,1.3c1.6,0,4.7-3.1,9-9.3
		c0.1-0.2,0.2-0.3,0.4-0.3c0.1,0,0.1,0.1,0.1,0.2c0,0.1-0.1,0.3-0.3,0.5l-1.3,1.7c-3.7,5.1-6.4,7.7-8.2,7.7c-0.8,0-1.5-0.3-2.1-1
		c-0.5-0.6-0.8-1.4-0.8-2.4c0-1.1,0.2-2.1,0.7-3.1c0.5-1,2.2-3.9,5.1-8.7c3.5-5.9,6.5-11,8.9-15.3c0.6,0.2,1.1,0.2,1.6,0.2
		C122.2,104.6,122.8,104.5,123.5,104.3z"/>
	<path class="st1" d="M127.7,125c0,0.1-0.1,0.2-0.3,0.5l-1.3,1.7c-3.7,5.1-6.5,7.7-8.4,7.7c-0.9,0-1.7-0.3-2.3-1s-0.9-1.5-0.9-2.4
		c0-1.1,0.7-2.9,2-5.2l4.6-7.8c0.6,0.1,1.1,0.2,1.4,0.2c0.5,0,1.3-0.1,2.2-0.2l-6.7,10.9c-1,1.6-1.4,2.8-1.4,3.7
		c0,0.9,0.5,1.3,1.4,1.3c1.7,0,4.8-3.1,9.2-9.3c0.1-0.2,0.2-0.3,0.3-0.3C127.7,124.8,127.7,124.9,127.7,125z M127.3,112.9
		c0,0.7-0.3,1.3-0.9,1.9c-0.6,0.6-1.2,0.9-1.9,0.9c-0.9,0-1.3-0.4-1.3-1.3c0-0.6,0.3-1.3,0.9-1.9c0.6-0.6,1.2-0.9,1.9-0.9
		C126.9,111.6,127.3,112.1,127.3,112.9z"/>
	<path class="st1" d="M143.3,104.3c-0.2,0.3-0.4,0.7-0.7,1.2c-0.5,0.8-1.3,2-2.3,3.7c-0.5,0.8-1.2,2.1-2.3,3.8l-5,8.1
		c-1.7,2.7-3.1,5.2-4.3,7.4c-1.3,2.5-2.4,4.4-3.2,5.7l-0.4,0.6c-0.5-0.1-1-0.2-1.6-0.2c-0.4,0-1.1,0.1-1.9,0.2
		c0.4-0.8,0.9-1.6,1.5-2.6l3.4-5.9c0.5-0.9,1.3-2.2,2.3-4l10.8-18c0.8,0.2,1.4,0.2,1.8,0.2C141.9,104.5,142.5,104.4,143.3,104.3z
		 M145.9,125c0,0.1-0.1,0.2-0.3,0.5l-1.3,1.7c-3.7,5.1-6.5,7.7-8.4,7.7c-0.8,0-1.6-0.3-2.2-0.9c-0.6-0.6-1-1.2-1-1.9
		c0-0.6,0.5-2,1.6-4.2l0-0.1c0.4-0.7,0.6-1.3,0.6-1.6c0-0.4-0.3-0.8-1-1.2c-0.7,0.3-1.4,0.5-1.8,0.5c-0.7,0-1-0.2-1-0.6
		c0-0.3,0.3-0.5,1-0.5c0.6,0,1.2,0.1,1.7,0.3c1-0.4,2.5-1.9,4.7-4.4c1.2-1.3,2.3-2,3.5-2c1.5,0,2.2,0.7,2.2,2.1
		c0,0.9-0.4,1.9-1.1,2.8c-0.8,0.9-1.5,1.4-2.2,1.4c-0.8,0-1.3-0.4-1.3-1.1c0-0.7,0.6-1.5,1.9-2.3c0.5-0.3,0.8-0.8,0.8-1.4
		c0-0.5-0.3-0.7-0.9-0.7c-0.8,0-1.9,0.7-3.2,2.2c-1.6,1.9-2.9,3-4,3.4c2,0.9,3,2,3,3.3c0,0.7-0.5,2-1.4,4c-0.4,0.8-0.6,1.4-0.6,1.7
		c0,0.5,0.3,0.8,1,0.8c1.8,0,4.8-3.1,9-9.3c0.1-0.2,0.3-0.3,0.4-0.3C145.8,124.8,145.9,124.9,145.9,125z"/>
	<path class="st1" d="M166.4,125c0,0.4-1.4,2.3-4.3,5.7c-2.3,2.8-4.1,4.2-5.5,4.2c-0.9,0-1.6-0.3-2.2-1c-0.6-0.7-0.9-1.5-0.9-2.5
		c0-1.1,0.3-2.2,0.9-3.4c-2,2.7-3.4,4.6-4.5,5.5c-1,1-2,1.4-3,1.4c-1,0-1.9-0.4-2.6-1.3s-1.1-2-1.1-3.4c0-3.8,2.6-7.1,7.9-10
		c2.3-1.3,4.2-1.9,5.6-1.9c1.2,0,1.8,0.6,1.8,1.8c0,0.3-0.1,0.8-0.2,1.3l1.5-2.8c0.6,0.1,1.1,0.2,1.6,0.2c0.5,0,1.2-0.1,2.1-0.2
		l-5.2,8.6c-1.8,3-2.7,5-2.7,5.9c0,0.9,0.4,1.4,1.1,1.4c0.8,0,2-0.9,3.8-2.7c1.7-1.8,3.5-4,5.3-6.6c0.1-0.2,0.2-0.3,0.3-0.3
		C166.4,124.8,166.4,124.9,166.4,125z M158.4,120.2c0-1-0.4-1.4-1.3-1.4c-1.8,0-4.2,1.8-7.1,5.3c-2.9,3.5-4.4,6.4-4.4,8.5
		c0,1.3,0.6,1.9,1.7,1.9c1.3,0,3.7-2.2,7-6.7C157,124,158.4,121.5,158.4,120.2z"/>
	<path class="st1" d="M177.3,118.3l-0.2,0.4h-3.8l-6.5,11.2c-0.8,1.3-1.2,2.4-1.2,3.2c0,0.9,0.5,1.3,1.4,1.3c1.8,0,4.8-3.1,9-9.3
		c0.1-0.2,0.3-0.3,0.4-0.3c0.1,0,0.2,0.1,0.2,0.2c0,0.1-0.1,0.2-0.3,0.5l-1.3,1.7c-3.7,5.1-6.4,7.7-8.3,7.7c-0.9,0-1.7-0.3-2.3-1
		c-0.6-0.7-0.9-1.5-0.9-2.5c0-1.2,0.5-2.6,1.6-4.4l4.9-8.3h-3l0.3-0.4h2.9l3.4-5.7c0.6,0.2,1.1,0.2,1.7,0.2c0.5,0,1.1-0.1,1.7-0.2
		l-3.4,5.7H177.3z"/>
	<path class="st1" d="M186.4,125c0,0.1-0.1,0.2-0.3,0.5l-1.3,1.7c-3.7,5.1-6.5,7.7-8.4,7.7c-0.9,0-1.7-0.3-2.3-1s-0.9-1.5-0.9-2.4
		c0-1.1,0.7-2.9,2-5.2l4.6-7.8c0.6,0.1,1.1,0.2,1.4,0.2c0.5,0,1.3-0.1,2.2-0.2l-6.7,10.9c-1,1.6-1.4,2.8-1.4,3.7
		c0,0.9,0.5,1.3,1.4,1.3c1.7,0,4.8-3.1,9.2-9.3c0.1-0.2,0.2-0.3,0.3-0.3C186.4,124.8,186.4,124.9,186.4,125z M186,112.9
		c0,0.7-0.3,1.3-0.9,1.9c-0.6,0.6-1.2,0.9-1.9,0.9c-0.9,0-1.3-0.4-1.3-1.3c0-0.6,0.3-1.3,0.9-1.9c0.6-0.6,1.2-0.9,1.9-0.9
		C185.6,111.6,186,112.1,186,112.9z"/>
	<path class="st1" d="M203.8,125c0,0.3-0.6,1-1.7,2.2c-1.7,1.7-3.3,2.6-4.7,2.6c-0.6,0-1.1-0.1-1.6-0.4c-2.6,3.7-5,5.5-7.3,5.5
		c-1.2,0-2.2-0.5-3-1.5c-0.8-1-1.2-2.1-1.2-3.5c0-3,2-5.9,5.9-8.7c2.8-2,5.1-3,6.9-3c1.7,0,2.5,0.9,2.5,2.7c0,2.2-1.2,5-3.5,8.1
		c0.4,0.2,0.8,0.4,1.3,0.4c0.9,0,1.9-0.4,3.1-1.2c1.2-0.8,2.1-1.8,2.9-2.9c0.2-0.3,0.4-0.4,0.5-0.4
		C203.8,124.9,203.8,124.9,203.8,125z M199.1,121c0-1.6-0.7-2.4-2.1-2.4c-1.8,0-3.9,1.7-6.5,5.1c-2.6,3.4-3.8,6.3-3.8,8.6
		c0,1.3,0.6,2,1.9,2c2.1,0,4.4-1.7,6.9-5.2c-0.6-0.6-0.8-1.3-0.8-1.9c0-1,0.4-1.9,1.1-3s1.5-1.5,2.2-1.5c0.3,0,0.5,0.2,0.6,0.6
		C198.9,122.6,199.1,121.9,199.1,121z"/>
	<path class="st1" d="M227.3,125c0,0.4-1.4,2.3-4.3,5.7c-2.3,2.8-4.2,4.2-5.5,4.2c-0.9,0-1.6-0.3-2.2-1c-0.6-0.7-0.9-1.5-0.9-2.5
		c0-0.9,0.2-1.7,0.5-2.4c0.4-0.8,1.3-2.2,2.8-4.5c1.6-2.3,2.4-3.8,2.4-4.5c0-0.8-0.4-1.2-1.3-1.2c-2.9,0-7.2,5.3-13.2,15.9
		c-1-0.1-1.5-0.1-1.7-0.1c-0.7,0-1.3,0-1.9,0.1l4.6-7.2c2.6-4.1,3.9-6.7,3.9-7.8c0-0.6-0.2-0.9-0.7-0.9c-1,0-3,2.1-5.9,6.3
		c-0.2,0.3-0.3,0.4-0.4,0.4c-0.1,0-0.2-0.1-0.2-0.2c0-0.1,0.1-0.2,0.1-0.2l0.6-0.7c3-4,5-6,6-6c0.7,0,1.2,0.3,1.7,0.9
		s0.7,1.3,0.7,2.2c0,1.3-0.7,3-2.2,5.2c2.3-3.2,4.1-5.4,5.3-6.5c1.2-1.2,2.4-1.8,3.4-1.8c0.9,0,1.6,0.4,2.2,1.1s0.9,1.6,0.9,2.6
		c0,1.3-0.9,3.3-2.7,6c-1.8,2.8-2.8,4.5-2.8,5.3c0,0.8,0.4,1.2,1.2,1.2c1.7,0,4.7-3.1,9-9.3c0.1-0.2,0.2-0.3,0.3-0.3
		C227.3,124.8,227.3,124.9,227.3,125z"/>
</g>
<circle class="st4" cx="124.8" cy="123.8" r="110.2"/>
<g>
	<circle class="st8" cx="123" cy="570" r="119"/>
	<circle class="st4" cx="123.8" cy="570.8" r="110.2"/>
	<g>
		<path class="st1" d="M137.5,545.2c0,1.1-1.1,1.9-3.2,2.7s-4.7,1.1-7.7,1.1c-3.1,0-6.9-0.4-11.4-1.3c-2.4,1.3-4.6,3.1-6.6,5.6
			c-2,2.5-4.1,5.9-6.4,10.4c-2.3,4.5-4,7.5-5,9c-1.1,1.5-2.5,2.9-4.4,4.4c-4.9,3.6-10,5.4-15.3,5.4c-2.8,0-5.1-0.6-6.9-1.8
			s-2.7-2.7-2.7-4.6c0-1,0.3-1.8,0.8-2.5c0.6-0.7,1.2-1,2-1c1.3,0,1.9,0.7,1.9,2c0,0.6-0.2,1.2-0.6,1.6c-0.4,0.4-0.9,0.7-1.4,0.7
			c-0.9,0-1.4-0.4-1.4-1.3c0-0.5-0.1-0.7-0.2-0.7c-0.3,0-0.5,0.5-0.5,1.4c0,1.6,0.8,2.9,2.4,4c1.6,1.1,3.6,1.6,6,1.6
			c5.2,0,9.9-2.4,14.1-7.1c2-2.2,4.5-5.8,7.6-10.9c5-8.2,10.3-13.7,15.8-16.3c-1.1-0.2-2.6-0.5-4.7-1c-5-1.1-8.8-1.6-11.4-1.6
			c-0.3,0-1.1,0-2.5,0.1c0.9,1.7,1.4,3.7,1.4,5.9c0,4.3-1.6,8.3-4.9,12.1c-3.3,3.8-6.7,5.7-10.5,5.7c-1.5,0-2.8-0.5-3.8-1.5
			s-1.5-2.3-1.5-4c0-2.2,0.8-4.7,2.5-7.4c1.7-2.7,3.9-5.1,6.6-7.1c2.7-2,5.6-3.4,8.8-4.2c-1.5-2.1-3.7-3.1-6.6-3.1
			c-2.4,0-4.8,0.7-7.3,2.1c-2.4,1.4-4.6,3.3-6.5,5.7c-0.3,0.4-0.5,0.6-0.6,0.6c-0.1,0-0.2-0.1-0.2-0.2c0-0.3,0.8-1.3,2.4-2.9
			c3.8-3.8,7.9-5.8,12.1-5.8c3.3,0,5.7,1.1,7.4,3.4c2.4-0.7,5.1-1,8.1-1c1.6,0,3,0.1,4.3,0.3c1.4,0.2,4.8,0.9,10.2,2
			c4.5-2,8.8-3,13-3C135.3,542.7,137.5,543.6,137.5,545.2z M96.1,549.6c0-1.6-0.4-3-1.1-4.3c-4.4,0.7-8.4,3-12.2,6.8
			c-3.8,3.8-5.7,7.5-5.7,11.2c0,1.4,0.4,2.6,1.3,3.5c0.9,1,1.9,1.4,3.2,1.4c3.3,0,6.5-2,9.7-6.1S96.1,553.9,96.1,549.6z M137,545.3
			c0-0.6-0.6-1-1.7-1.4c-1.1-0.4-2.5-0.6-4.2-0.6c-4.2,0-8.2,0.9-12.2,2.6c0.5,0.1,1.8,0.3,3.9,0.7c3.1,0.6,5.9,0.9,8.3,0.9
			c1.6,0,2.9-0.2,4.1-0.7S137,545.9,137,545.3z"/>
		<path class="st1" d="M120.7,572c0,0.2-0.6,0.9-1.8,2.1c-1.5,1.6-2.9,2.5-4.2,2.5c-1.5,0-2.2-0.9-2.2-2.6c0-0.5,0.1-1.2,0.4-2.1
			c-1.2,1.1-2.2,2.1-3,3.2c-0.8,1.1-2.1,3.2-4,6.4c-1-0.1-1.6-0.1-1.8-0.1c-0.1,0-0.7,0-1.8,0.1l4.8-7.8c2.4-3.9,3.6-6.3,3.6-7.3
			c0-0.5-0.2-0.8-0.7-0.8c-1.1,0-3.1,2.1-6,6.3c-0.2,0.3-0.3,0.4-0.5,0.4c-0.1,0-0.1-0.1-0.1-0.2c0-0.1,0.1-0.2,0.1-0.2l0.5-0.7
			c3-4,5.1-6,6.1-6c1.6,0,2.3,1,2.3,3c0,1.5-0.8,3.5-2.4,6c1-1.2,2-2.1,2.9-2.9c0.7-1.7,1.7-3.2,2.8-4.4c1.1-1.2,2.1-1.8,3-1.8
			c0.6,0,0.9,0.3,0.9,0.8c0,0.9-1.4,2.3-4.1,4c-0.4,0.3-1.1,0.7-1.9,1.2l-0.4,0.3c-0.3,0.9-0.4,1.6-0.4,2.2c0,1.6,0.6,2.5,1.8,2.5
			c1.5,0,3.2-1.3,5-3.8c0.4-0.4,0.6-0.6,0.7-0.6C120.7,571.8,120.7,571.9,120.7,572z"/>
		<path class="st1" d="M139.1,572c0,0.3-1.1,1.6-3.2,4c-2.4,2.6-5.5,5-9.3,7.1l-1.4,2.6c-2.8,5.1-5.8,8.9-8.9,11.3
			c-3.2,2.6-5.9,3.8-8.3,3.8c-0.8,0-1.5-0.3-2-0.8c-0.5-0.5-0.8-1.1-0.8-1.9c0-3.9,4.5-8,13.6-12.2c0.7-0.4,1.9-0.9,3.3-1.6l0.4-0.3
			l5.2-9.2c-2,2.8-3.5,4.6-4.4,5.5c-0.9,0.9-1.8,1.3-2.8,1.3c-0.8,0-1.5-0.3-2.1-1c-0.6-0.7-0.9-1.5-0.9-2.4c0-1.1,0.7-2.9,2.1-5.2
			l4.5-7.6c0.4,0.1,1,0.1,1.6,0.1c0.5,0,1.2-0.1,2.1-0.2l-5.8,9.4c-1.6,2.7-2.5,4.4-2.5,5.2c0,0.9,0.4,1.3,1.2,1.3
			c2.1,0,5.4-3.7,9.7-11.2l2.7-4.6c0.4,0.1,1,0.1,1.6,0.1c0.5,0,1.2-0.1,2-0.2c-2.4,3.8-5.7,9.5-9.8,16.9c2.4-1.2,4.4-2.6,6-4
			c1.6-1.4,3.5-3.5,5.5-6.1c0.3-0.4,0.5-0.5,0.5-0.5C139.1,571.9,139.1,571.9,139.1,572z M122.2,584.7c-0.3,0.2-1.4,0.7-3.3,1.7
			c-8.9,4.4-13.3,8.4-13.3,11.9c0,1.5,0.8,2.2,2.5,2.2c2.1,0,4.1-1.1,6.2-3.4c2.1-2.2,4.6-6.2,7.6-11.8L122.2,584.7z"/>
		<path class="st1" d="M153.7,572c0,0.3-1.4,1.9-4.1,4.9c-3,3.3-5.6,4.9-7.7,4.9c-1.4,0-2.5-0.5-3.5-1.6c-1-1-1.5-2.3-1.5-3.7
			c0-1.6,0.7-3.3,2-5.1s3.1-3.3,5.4-4.5c1.9-1.1,3.4-1.6,4.6-1.6c1.4,0,2.2,0.9,2.2,2.6c0,1.3-0.5,2.7-1.4,4s-1.8,2-2.7,2
			c-0.9,0-1.3-0.4-1.3-1.3c0-1,0.9-2,2.7-2.9c1.4-0.7,2.1-1.6,2.1-2.7c0-0.9-0.5-1.3-1.4-1.3c-1.6,0-3.6,1.6-6,4.8s-3.5,5.9-3.5,8.1
			c0,1.8,0.9,2.8,2.6,2.8c2.7,0,6.4-3,11-9.1c0.3-0.3,0.4-0.5,0.6-0.5C153.7,571.9,153.7,571.9,153.7,572z"/>
		<path class="st1" d="M169.2,551.3c-0.2,0.3-0.4,0.7-0.7,1.2c-0.5,0.8-1.3,2-2.3,3.7c-0.5,0.8-1.2,2.1-2.3,3.8l-5,8.1
			c-1.7,2.7-3.1,5.2-4.3,7.4c-1.3,2.5-2.4,4.4-3.2,5.7l-0.4,0.6c-0.5-0.1-1-0.2-1.6-0.2c-0.4,0-1.1,0.1-1.9,0.2
			c0.4-0.8,0.9-1.6,1.5-2.6l3.4-5.9c0.5-0.9,1.3-2.2,2.3-4l10.8-18c0.8,0.2,1.4,0.2,1.8,0.2S168.4,551.4,169.2,551.3z M171.8,572
			c0,0.1-0.1,0.2-0.3,0.5l-1.3,1.7c-3.7,5.1-6.5,7.7-8.4,7.7c-0.8,0-1.6-0.3-2.2-0.9s-1-1.2-1-1.9c0-0.6,0.5-2,1.6-4.2l0-0.1
			c0.4-0.7,0.6-1.3,0.6-1.6c0-0.4-0.3-0.8-1-1.2c-0.7,0.3-1.4,0.5-1.8,0.5c-0.7,0-1-0.2-1-0.6c0-0.3,0.3-0.5,1-0.5
			c0.6,0,1.2,0.1,1.7,0.3c1-0.4,2.5-1.9,4.7-4.4c1.2-1.3,2.3-2,3.5-2c1.5,0,2.2,0.7,2.2,2.1c0,0.9-0.4,1.9-1.1,2.8
			c-0.8,0.9-1.5,1.4-2.2,1.4c-0.8,0-1.3-0.4-1.3-1.1c0-0.7,0.6-1.5,1.9-2.3c0.5-0.3,0.8-0.8,0.8-1.4c0-0.5-0.3-0.7-0.9-0.7
			c-0.8,0-1.9,0.7-3.2,2.2c-1.6,1.9-2.9,3-4,3.4c2,0.9,3,2,3,3.3c0,0.7-0.5,2-1.4,4c-0.4,0.8-0.6,1.4-0.6,1.7c0,0.5,0.3,0.8,1,0.8
			c1.8,0,4.8-3.1,9-9.3c0.1-0.2,0.3-0.3,0.4-0.3C171.7,571.8,171.8,571.9,171.8,572z"/>
	</g>
</g>
</svg>
