<?xml version="1.0" encoding="utf-8"?>
<!-- Generator: Adobe Illustrator 19.1.0, SVG Export Plug-In . SVG Version: 6.00 Build 0)  -->
<svg version="1.1" id="Lager_1" xmlns="http://www.w3.org/2000/svg" xmlns:xlink="http://www.w3.org/1999/xlink" x="0px" y="0px"
	 viewBox="0 0 238 238" style="enable-background:new 0 0 238 238;" xml:space="preserve">
<style type="text/css">
	.st0{fill:#A9A9A5;}
	.st1{fill:#FFFFFF;}
	.st2{fill:none;stroke:#FFFFFF;stroke-width:2;stroke-miterlimit:10;stroke-dasharray:2.9966,5.9933;}
	.st3{fill:#E1ACB7;stroke:#94938F;stroke-miterlimit:10;}
	.st4{fill:none;stroke:#FFFFFF;stroke-width:2;stroke-miterlimit:10;stroke-dasharray:3,6;}
	.st5{fill:#47463E;}
</style>
<circle class="st0" cx="966" cy="119" r="119"/>
<g>
	<path class="st1" d="M933.2,102.7c0,1-0.1,2.1-0.4,3.3c-0.3,1.2-0.5,1.8-0.8,1.8c-0.2,0-0.3-0.1-0.3-0.3c0-0.1,0-0.1,0.1-0.3
		c0.5-1.4,0.8-2.8,0.8-4.4c0-2.5-0.7-4.4-2.2-5.9s-3.4-2.2-5.8-2.2c-3.2,0-6.5,1.1-10,3.2c2.7,2,4.1,4.4,4.1,7.1
		c0,4.4-3,6.9-8.9,7.8c4.9,1.7,7.3,4.8,7.3,9.3c0,3.4-1.4,6.3-4.3,8.8c-2.9,2.5-6.2,3.8-10,3.8c-1.8,0-3.3-0.5-4.4-1.4
		s-1.6-2.2-1.6-3.9c0-2.5,1.1-5,3.4-7.4c2.3-2.5,4.6-3.7,6.9-3.7c1.3,0,2.3,0.4,3.2,1.2c0.8,0.8,1.2,1.9,1.2,3.1
		c0,0.8-0.2,1.7-0.7,2.8c-0.5,1.1-0.8,1.7-1.1,1.7c-0.2,0-0.3-0.1-0.3-0.2c0-0.1,0-0.2,0.1-0.4c1-1.5,1.5-2.8,1.5-4
		c0-1.1-0.4-2-1.1-2.7c-0.7-0.7-1.7-1-2.8-1c-2.2,0-4.4,1.2-6.5,3.5c-2.1,2.3-3.2,4.7-3.2,7.1c0,1.3,0.4,2.4,1.3,3.2s2,1.3,3.3,1.3
		c3,0,5.7-1.5,8.2-4.4s3.7-6.1,3.7-9.6c0-3.2-1.6-5.6-4.7-7.1l-1.7,0.2c-0.5,0.1-0.9,0.1-1.4,0.1c-1.5,0-2.2-0.2-2.2-0.7
		c0-0.4,0.6-0.5,1.8-0.5c0.9,0,2,0.2,3.5,0.5c2-0.6,3.6-1.7,4.8-3.3c1.2-1.6,1.8-3.4,1.8-5.4c0-2-0.8-3.7-2.3-5.3
		c-4.3,3.3-8.3,8.8-12.1,16.7c-2.3,4.8-4.5,8.3-6.4,10.5c-1.9,2.1-4.5,4-8,5.7c-4.1,2-7.7,3-10.9,3c-2.6,0-4.8-0.6-6.5-1.8
		c-1.7-1.2-2.6-2.7-2.6-4.5c0-1,0.3-1.9,0.9-2.6c0.6-0.7,1.3-1.1,2.1-1.1c1.2,0,1.8,0.7,1.8,2c0,0.7-0.2,1.2-0.6,1.7
		c-0.4,0.5-0.9,0.7-1.5,0.7c-1,0-1.5-0.5-1.5-1.6c0-0.4,0-0.6-0.1-0.6c-0.3,0-0.5,0.5-0.5,1.6c0,1.6,0.8,3,2.4,4
		c1.6,1.1,3.6,1.6,6,1.6c4.3,0,8.2-1.6,11.6-4.7c1.5-1.4,2.8-2.8,3.9-4.3s3.7-5.3,7.6-11.4c1.9-2.9,4.3-5.9,7-8.9
		c2.7-3,5-5.1,6.8-6.4c-3.1-2.6-7.6-3.9-13.4-3.9c-8.2,0-15.4,3-21.5,8.9c-5,4.9-7.5,9.5-7.5,13.8c0,2.2,0.7,3.9,2.1,5.2
		s3.3,1.9,5.7,1.9c3.9,0,8-1.9,12.2-5.7c4.2-3.8,6.3-7.4,6.3-11c0-2.8-1.5-4.2-4.4-4.2c-2.9,0-6,1.6-9.4,4.8c-3.3,3.2-5,6.3-5,9.1
		c0,0.7,0.2,1.3,0.7,1.8s1,0.8,1.6,0.8c0.3,0.1,0.5,0.1,0.5,0.2c0,0.2-0.2,0.3-0.6,0.3c-0.9,0-1.7-0.4-2.4-1.3c-0.6-0.8-1-1.9-1-3.1
		c0-3,1.7-6,5-8.9c3.3-2.9,6.8-4.3,10.3-4.3c3.4,0,5,1.6,5,4.7c0,3.8-2.1,7.6-6.4,11.5s-8.5,5.8-12.7,5.8c-2.7,0-4.9-0.8-6.5-2.4
		c-1.6-1.6-2.4-3.8-2.4-6.5c0-5.5,3.1-10.6,9.4-15.1c6.2-4.6,13.1-6.8,20.7-6.8c5.7,0,10.5,1.3,14.5,3.8c3.6-2.2,7-3.3,10.4-3.3
		c2.6,0,4.7,0.8,6.3,2.3C932.4,98.1,933.2,100.2,933.2,102.7z"/>
	<path class="st1" d="M938.2,124c0,0.2-0.6,0.9-1.8,2.1c-1.5,1.6-2.9,2.5-4.2,2.5c-1.5,0-2.2-0.9-2.2-2.6c0-0.5,0.1-1.2,0.4-2.1
		c-1.2,1.1-2.2,2.1-3,3.2c-0.8,1.1-2.1,3.2-4,6.4c-1-0.1-1.6-0.1-1.8-0.1c-0.1,0-0.7,0-1.8,0.1l4.8-7.8c2.4-3.9,3.6-6.3,3.6-7.3
		c0-0.5-0.2-0.8-0.7-0.8c-1.1,0-3.1,2.1-6,6.3c-0.2,0.3-0.3,0.4-0.5,0.4c-0.1,0-0.1-0.1-0.1-0.2c0-0.1,0.1-0.2,0.1-0.2l0.5-0.7
		c3-4,5.1-6,6.1-6c1.6,0,2.3,1,2.3,3c0,1.5-0.8,3.5-2.4,6c1-1.2,2-2.1,2.9-2.9c0.7-1.7,1.7-3.2,2.8-4.4c1.1-1.2,2.1-1.8,3-1.8
		c0.6,0,0.9,0.3,0.9,0.8c0,0.9-1.4,2.3-4.1,4c-0.4,0.3-1.1,0.7-1.9,1.2l-0.4,0.3c-0.3,0.9-0.4,1.6-0.4,2.2c0,1.6,0.6,2.5,1.8,2.5
		c1.5,0,3.2-1.3,5-3.8c0.4-0.4,0.6-0.6,0.7-0.6C938.2,123.8,938.2,123.9,938.2,124z"/>
	<path class="st1" d="M958.8,124c0,0.4-1.4,2.3-4.3,5.7c-2.3,2.8-4.1,4.2-5.5,4.2c-0.9,0-1.6-0.3-2.2-1c-0.6-0.7-0.9-1.5-0.9-2.5
		c0-1.1,0.3-2.2,0.9-3.4c-2,2.7-3.4,4.6-4.5,5.5c-1,1-2,1.4-3,1.4c-1,0-1.9-0.4-2.6-1.3s-1.1-2-1.1-3.4c0-3.8,2.6-7.1,7.9-10
		c2.3-1.3,4.2-1.9,5.6-1.9c1.2,0,1.8,0.6,1.8,1.8c0,0.3-0.1,0.8-0.2,1.3l1.5-2.8c0.6,0.1,1.1,0.2,1.6,0.2c0.5,0,1.2-0.1,2.1-0.2
		l-5.2,8.6c-1.8,3-2.7,5-2.7,5.9c0,0.9,0.4,1.4,1.1,1.4c0.8,0,2-0.9,3.8-2.7c1.7-1.8,3.5-4,5.3-6.6c0.1-0.2,0.2-0.3,0.3-0.3
		C958.8,123.8,958.8,123.9,958.8,124z M950.7,119.2c0-1-0.4-1.4-1.3-1.4c-1.8,0-4.2,1.8-7.1,5.3c-2.9,3.5-4.4,6.4-4.4,8.5
		c0,1.3,0.6,1.9,1.7,1.9c1.3,0,3.7-2.2,7-6.7C949.4,123,950.7,120.5,950.7,119.2z"/>
	<path class="st1" d="M982.3,124c0,0.4-1.4,2.3-4.3,5.7c-2.3,2.8-4.2,4.2-5.5,4.2c-0.9,0-1.6-0.3-2.2-1c-0.6-0.7-0.9-1.5-0.9-2.5
		c0-0.9,0.2-1.7,0.5-2.4c0.4-0.8,1.3-2.2,2.8-4.5c1.6-2.3,2.4-3.8,2.4-4.5c0-0.8-0.4-1.2-1.3-1.2c-2.9,0-7.2,5.3-13.2,15.9
		c-1-0.1-1.5-0.1-1.7-0.1c-0.7,0-1.3,0-1.9,0.1l4.6-7.2c2.6-4.1,3.9-6.7,3.9-7.8c0-0.6-0.2-0.9-0.7-0.9c-1,0-3,2.1-5.9,6.3
		c-0.2,0.3-0.3,0.4-0.4,0.4c-0.1,0-0.2-0.1-0.2-0.2c0-0.1,0.1-0.2,0.1-0.2l0.6-0.7c3-4,5-6,6-6c0.7,0,1.2,0.3,1.7,0.9
		c0.5,0.6,0.7,1.3,0.7,2.2c0,1.3-0.7,3-2.2,5.2c2.3-3.2,4.1-5.4,5.3-6.5c1.2-1.2,2.4-1.8,3.4-1.8c0.9,0,1.6,0.4,2.2,1.1
		s0.9,1.6,0.9,2.6c0,1.3-0.9,3.3-2.7,6c-1.8,2.8-2.8,4.5-2.8,5.3c0,0.8,0.4,1.2,1.2,1.2c1.7,0,4.7-3.1,9-9.3
		c0.1-0.2,0.2-0.3,0.3-0.3C982.3,123.8,982.3,123.9,982.3,124z"/>
	<path class="st1" d="M1008.9,103.5c-7.3,11.6-11.9,19.1-13.9,22.3c-1.9,3.3-2.9,5.4-2.9,6.2c0,0.9,0.4,1.3,1.2,1.3
		c1.8,0,4.8-3.1,9.1-9.3c0.1-0.2,0.2-0.3,0.3-0.3c0.1,0,0.2,0.1,0.2,0.2c0,0.1-0.1,0.2-0.3,0.5l-1.3,1.7c-3.7,5.1-6.4,7.7-8.2,7.7
		c-0.9,0-1.6-0.3-2.2-1c-0.6-0.7-0.9-1.5-0.9-2.6s0.4-2.3,1.1-3.7c-3.4,4.8-6,7.3-7.6,7.3c-1,0-1.9-0.4-2.6-1.3s-1.1-2-1.1-3.4
		c0-3.2,2-6.1,6-8.8c3.2-2.1,5.7-3.1,7.5-3.1c1.2,0,1.8,0.6,1.8,1.8c0,0.5-0.2,1.2-0.5,1.8l10.5-17.5c0.6,0.2,1.3,0.3,1.9,0.3
		C1007.3,103.7,1007.9,103.6,1008.9,103.5z M994.8,119.3c0-1-0.5-1.6-1.4-1.6c-1.8,0-4.1,1.8-7,5.3c-2.9,3.5-4.3,6.3-4.3,8.5
		c0,1.3,0.5,2,1.6,2c1.6,0,4.2-2.7,8.1-8.1C993.8,122.4,994.8,120.4,994.8,119.3z"/>
	<path class="st1" d="M1013,124c0,0.1-0.1,0.2-0.3,0.5l-1.3,1.7c-3.7,5.1-6.5,7.7-8.4,7.7c-0.9,0-1.7-0.3-2.3-1s-0.9-1.5-0.9-2.4
		c0-1.1,0.7-2.9,2-5.2l4.6-7.8c0.6,0.1,1.1,0.2,1.4,0.2c0.5,0,1.3-0.1,2.2-0.2l-6.7,10.9c-1,1.6-1.4,2.8-1.4,3.7
		c0,0.9,0.5,1.3,1.4,1.3c1.7,0,4.8-3.1,9.2-9.3c0.1-0.2,0.2-0.3,0.3-0.3C1013,123.8,1013,123.9,1013,124z M1012.6,111.9
		c0,0.7-0.3,1.3-0.9,1.9c-0.6,0.6-1.2,0.9-1.9,0.9c-0.9,0-1.3-0.4-1.3-1.3c0-0.6,0.3-1.3,0.9-1.9c0.6-0.6,1.2-0.9,1.9-0.9
		C1012.2,110.6,1012.6,111.1,1012.6,111.9z"/>
	<path class="st1" d="M1036.5,124c0,0.4-1.4,2.3-4.3,5.7c-2.3,2.8-4.2,4.2-5.5,4.2c-0.9,0-1.6-0.3-2.2-1c-0.6-0.7-0.9-1.5-0.9-2.5
		c0-0.9,0.2-1.7,0.5-2.4c0.4-0.8,1.3-2.2,2.8-4.5c1.6-2.3,2.4-3.8,2.4-4.5c0-0.8-0.4-1.2-1.3-1.2c-2.9,0-7.2,5.3-13.2,15.9
		c-1-0.1-1.5-0.1-1.7-0.1c-0.7,0-1.3,0-1.9,0.1l4.6-7.2c2.6-4.1,3.9-6.7,3.9-7.8c0-0.6-0.2-0.9-0.7-0.9c-1,0-3,2.1-5.9,6.3
		c-0.2,0.3-0.3,0.4-0.4,0.4c-0.1,0-0.2-0.1-0.2-0.2c0-0.1,0.1-0.2,0.1-0.2l0.6-0.7c3-4,5-6,6-6c0.7,0,1.2,0.3,1.7,0.9
		c0.5,0.6,0.7,1.3,0.7,2.2c0,1.3-0.7,3-2.2,5.2c2.3-3.2,4.1-5.4,5.3-6.5c1.2-1.2,2.4-1.8,3.4-1.8c0.9,0,1.6,0.4,2.2,1.1
		s0.9,1.6,0.9,2.6c0,1.3-0.9,3.3-2.7,6c-1.8,2.8-2.8,4.5-2.8,5.3c0,0.8,0.4,1.2,1.2,1.2c1.7,0,4.7-3.1,9-9.3
		c0.1-0.2,0.2-0.3,0.3-0.3C1036.5,123.8,1036.5,123.9,1036.5,124z"/>
	<path class="st1" d="M1056.6,124c0,0.3-1.1,1.6-3.2,4c-2.4,2.6-5.4,4.9-9.2,7l-1.5,2.7c-2.7,4.9-5.6,8.7-8.9,11.3
		c-3.2,2.6-5.9,3.8-8.2,3.8c-0.8,0-1.5-0.3-2.1-0.8c-0.5-0.5-0.8-1.1-0.8-1.9c0-4,4.5-8.1,13.6-12.2c2-0.9,3.2-1.5,3.8-1.8l5-9.2
		c-2.2,2.9-3.7,4.7-4.6,5.6c-0.9,0.8-1.8,1.2-2.7,1.2c-1,0-1.9-0.4-2.6-1.3c-0.7-0.9-1.1-2-1.1-3.3c0-3.4,2.2-6.4,6.6-9.2
		c2.9-1.8,5.3-2.8,6.9-2.8c1.2,0,1.8,0.6,1.8,1.9c0,0.4-0.1,0.8-0.3,1.3l1.6-3c0.5,0.1,1,0.2,1.4,0.2c0.5,0,1.2-0.1,2.2-0.2
		c-0.1,0.2-1,1.6-2.6,4.4l-7.3,12.5c2.6-1.4,4.6-2.8,6.1-4.2c1.5-1.3,3.3-3.3,5.2-5.8c0.3-0.4,0.5-0.6,0.6-0.6
		C1056.5,123.9,1056.6,123.9,1056.6,124z M1039.8,136.7c-0.4,0.2-1.5,0.8-3.3,1.7c-8.9,4.4-13.4,8.4-13.4,11.9
		c0,0.6,0.2,1.1,0.7,1.5c0.4,0.4,1,0.6,1.7,0.6c2.1,0,4.2-1.1,6.3-3.3s4.6-6.1,7.6-11.8L1039.8,136.7z M1049.1,119.2
		c0-1-0.5-1.5-1.4-1.5c-1.8,0-4.1,1.8-7,5.3c-2.9,3.5-4.4,6.3-4.4,8.5c0,1.3,0.6,2,1.7,2c1.2,0,3.1-1.7,5.9-5.2
		C1047.3,123.8,1049.1,120.8,1049.1,119.2z"/>
</g>
<g>
	<circle class="st2" cx="966.8" cy="119.8" r="110.2"/>
</g>
<circle class="st3" cx="119" cy="655" r="119"/>
<g>
	<path class="st1" d="M122.6,636.1c0,1-0.1,2-0.4,3.1c-0.2,1.1-0.5,1.7-0.7,1.7c-0.1,0-0.2-0.1-0.2-0.2c0-0.1,0-0.3,0.1-0.4
		c0.4-1.2,0.7-2.6,0.7-4.2c0-2.5-0.7-4.4-2.2-5.9c-1.5-1.5-3.5-2.2-5.9-2.2c-4.7,0-9.3,2.2-13.7,6.7c1.7,3.1,2.5,6.4,2.5,9.9
		c0,6.4-2.5,11.8-7.4,16.3c-4.9,4.5-10.9,6.7-18,6.7c-2.2,0-5.2-0.3-9-0.9c-3.3,0.6-6.5,0.9-9.5,0.9c-5.2,0-7.7-0.5-7.7-1.6
		c0-0.5,0.6-1,1.9-1.3c1.3-0.4,2.7-0.6,4.4-0.6c2,0,6.1,0.7,12.1,2c4.1-1.1,7.3-2.8,9.6-5.1c2.3-2.2,5.8-7.1,10.5-14.7
		c2.9-4.6,6-8.5,9.4-11.7c-2.9-4.8-7.5-7.2-13.9-7.2c-6.6,0-12.7,2.6-18.2,7.8c-2.8,2.6-5,5.5-6.7,8.7c-1.7,3.2-2.5,6.1-2.5,8.7
		c0,2.1,0.7,3.8,2,5.1c1.3,1.3,3.1,1.9,5.3,1.9c3.7,0,7.6-2,11.6-6c4-4,6-7.9,6-11.6c0-1.4-0.4-2.5-1.2-3.4
		c-0.8-0.9-1.8-1.3-3.1-1.3c-1.4,0-2.2,0.2-2.2,0.7c0,0.1,0.1,0.2,0.3,0.2c0.1,0,0.2,0,0.3-0.1h0.4c1,0,1.4,0.4,1.4,1.3
		c0,0.6-0.2,1.2-0.7,1.7c-0.5,0.5-1.1,0.7-1.7,0.7c-1.2,0-1.8-0.6-1.8-1.9c0-0.9,0.4-1.6,1.2-2.3c0.8-0.6,1.7-0.9,2.8-0.9
		c1.4,0,2.6,0.5,3.5,1.4c0.9,0.9,1.3,2.2,1.3,3.7c0,3.9-2.1,8-6.2,12.1c-4.1,4.1-8.1,6.2-12.1,6.2c-2.7,0-5-0.9-6.7-2.7
		c-1.8-1.8-2.6-4.1-2.6-7c0-6.1,3-11.5,9-16.3c6-4.8,12.8-7.2,20.3-7.2c6.4,0,11.3,2.4,14.5,7.1c4.8-4.4,9.6-6.6,14.5-6.6
		c2.5,0,4.5,0.8,6,2.4S122.6,633.5,122.6,636.1z M67.3,666.5c-5.4-0.8-9.4-1.1-12.1-1.1c-2.3,0-3.5,0.2-3.5,0.7c0,0.7,2.6,1,7.7,1
		C62.3,667,65,666.9,67.3,666.5z M101.1,642.4c0-2.5-0.5-4.8-1.6-7c-2.6,3-5,6.8-7.1,11.3c-2.8,6-5.6,10.4-8.6,13
		c-3,2.7-7.5,4.9-13.4,6.5c2.5,0.5,5.1,0.8,7.9,0.8c7.5,0,13.5-3.6,18.2-10.9C99.6,651.5,101.1,646.9,101.1,642.4z"/>
	<path class="st1" d="M118.4,657c0,0.1-0.2,0.3-0.5,0.8l-1.3,1.6c-4,5-7.5,7.5-10.4,7.5c-1.4,0-2.5-0.5-3.4-1.5s-1.4-2.2-1.4-3.7
		c0-3.5,2.5-6.6,7.4-9.3c2.6-1.4,4.7-2.1,6.3-2.1c0.7,0,1.3,0.2,1.8,0.6c0.5,0.4,0.7,0.9,0.7,1.5c0,1.4-0.9,2.6-2.8,3.6
		c-1.8,1-4.9,1.9-9.2,2.8c-1.3,2-2,3.7-2,5c0,1.7,0.9,2.5,2.7,2.5c3.1,0,6.9-3,11.3-9c0.2-0.3,0.4-0.5,0.6-0.5
		C118.4,656.9,118.4,656.9,118.4,657z M115.9,651.6c0-0.6-0.3-0.9-1-0.9c-1,0-2.4,0.7-4.1,2.2c-1.7,1.4-3.3,3.3-5,5.6
		c2.8-0.7,5.2-1.7,7.1-3.1C114.9,654,115.9,652.8,115.9,651.6z"/>
	<path class="st1" d="M128.3,645.6c0,0.8-1.2,2.3-3.7,4.6c-0.1,0.6-0.2,1.1-0.2,1.6c0,1.1,0.5,2.9,1.6,5.4c0.5,1.2,0.8,2.3,0.8,3.1
		c0,1.8-0.9,3.3-2.6,4.6c-1.7,1.3-3.7,1.9-6.1,1.9c-1.3,0-2.4-0.4-3.2-1.1s-1.2-1.8-1.2-3c0-1.5,0.5-2.9,1.6-4.3
		c1-1.4,2.1-2.1,3.2-2.1c0.2,0,0.4,0,0.5,0.1l2.3-2.9c0.7-0.8,1.6-2,2.8-3.5c0.3-1.4,0.8-2.5,1.5-3.5c0.7-1,1.4-1.5,2-1.5
		C128.1,645.1,128.3,645.3,128.3,645.6z M124.2,657.2c0-0.6,0-1.2-0.1-1.7c0-0.6-0.1-1.4-0.1-2.5c0-0.9,0-1.6,0.1-2.2
		c-1.1,1.4-2.7,3.3-4.7,5.9c0.4,0.3,0.6,0.7,0.6,1.1c0,1.2-0.9,1.9-2.8,2.3c-0.8,0.2-1.4,0.6-2,1.2c-0.6,0.7-0.8,1.3-0.8,2.1
		c0,0.8,0.3,1.4,0.8,2c0.6,0.5,1.3,0.8,2.1,0.8c1.6,0,3.2-1,4.7-2.9C123.5,661.4,124.2,659.4,124.2,657.2z"/>
	<path class="st1" d="M140.1,657c0,0.1-0.1,0.2-0.3,0.5l-1.3,1.7c-3.7,5.1-6.5,7.7-8.4,7.7c-0.9,0-1.7-0.3-2.3-1s-0.9-1.5-0.9-2.4
		c0-1.1,0.7-2.9,2-5.2l4.6-7.8c0.6,0.1,1.1,0.2,1.4,0.2c0.5,0,1.3-0.1,2.2-0.2l-6.7,10.9c-1,1.6-1.4,2.8-1.4,3.7
		c0,0.9,0.5,1.3,1.4,1.3c1.7,0,4.8-3.1,9.2-9.3c0.1-0.2,0.2-0.3,0.3-0.3C140,656.8,140.1,656.9,140.1,657z M139.7,644.9
		c0,0.7-0.3,1.3-0.9,1.9c-0.6,0.6-1.2,0.9-1.9,0.9c-0.9,0-1.3-0.4-1.3-1.3c0-0.6,0.3-1.3,0.9-1.9c0.6-0.6,1.2-0.9,1.9-0.9
		C139.3,643.6,139.7,644.1,139.7,644.9z"/>
	<path class="st1" d="M160.2,657c0,0.3-1.1,1.6-3.2,4c-2.4,2.6-5.4,4.9-9.2,7l-1.5,2.7c-2.7,4.9-5.6,8.7-8.9,11.3
		c-3.2,2.6-5.9,3.8-8.2,3.8c-0.8,0-1.5-0.3-2.1-0.8c-0.5-0.5-0.8-1.1-0.8-1.9c0-4,4.5-8.1,13.6-12.2c2-0.9,3.2-1.5,3.8-1.8l5-9.2
		c-2.2,2.9-3.7,4.7-4.6,5.6c-0.9,0.8-1.8,1.2-2.7,1.2c-1,0-1.9-0.4-2.6-1.3c-0.7-0.9-1.1-2-1.1-3.3c0-3.4,2.2-6.4,6.6-9.2
		c2.9-1.8,5.3-2.8,6.9-2.8c1.2,0,1.8,0.6,1.8,1.9c0,0.4-0.1,0.8-0.3,1.3l1.6-3c0.5,0.1,1,0.2,1.4,0.2c0.5,0,1.2-0.1,2.2-0.2
		c-0.1,0.2-1,1.6-2.6,4.4l-7.3,12.5c2.6-1.4,4.6-2.8,6.1-4.2c1.5-1.3,3.3-3.3,5.2-5.8c0.3-0.4,0.5-0.6,0.6-0.6
		C160.2,656.9,160.2,656.9,160.2,657z M143.4,669.7c-0.4,0.2-1.5,0.8-3.3,1.7c-8.9,4.4-13.4,8.4-13.4,11.9c0,0.6,0.2,1.1,0.7,1.5
		c0.4,0.4,1,0.6,1.7,0.6c2.1,0,4.2-1.1,6.3-3.3s4.6-6.1,7.6-11.8L143.4,669.7z M152.7,652.2c0-1-0.5-1.5-1.4-1.5
		c-1.8,0-4.1,1.8-7,5.3c-2.9,3.5-4.4,6.3-4.4,8.5c0,1.3,0.6,2,1.7,2c1.2,0,3.1-1.7,5.9-5.2C150.9,656.8,152.7,653.8,152.7,652.2z"/>
	<path class="st1" d="M183.7,657c0,0.4-1.4,2.3-4.3,5.7c-2.3,2.8-4.2,4.2-5.5,4.2c-0.9,0-1.6-0.3-2.2-1c-0.6-0.7-0.9-1.5-0.9-2.5
		c0-0.9,0.2-1.7,0.5-2.4c0.4-0.8,1.3-2.2,2.8-4.5c1.6-2.3,2.4-3.8,2.4-4.5c0-0.8-0.4-1.2-1.3-1.2c-2.9,0-7.2,5.3-13.2,15.9
		c-1-0.1-1.5-0.1-1.7-0.1c-0.7,0-1.3,0-1.9,0.1l4.6-7.2c2.6-4.1,3.9-6.7,3.9-7.8c0-0.6-0.2-0.9-0.7-0.9c-1,0-3,2.1-5.9,6.3
		c-0.2,0.3-0.3,0.4-0.4,0.4c-0.1,0-0.2-0.1-0.2-0.2c0-0.1,0.1-0.2,0.1-0.2l0.6-0.7c3-4,5-6,6-6c0.7,0,1.2,0.3,1.7,0.9
		c0.5,0.6,0.7,1.3,0.7,2.2c0,1.3-0.7,3-2.2,5.2c2.3-3.2,4.1-5.4,5.3-6.5c1.2-1.2,2.4-1.8,3.4-1.8c0.9,0,1.6,0.4,2.2,1.1
		s0.9,1.6,0.9,2.6c0,1.3-0.9,3.3-2.7,6c-1.8,2.8-2.8,4.5-2.8,5.3c0,0.8,0.4,1.2,1.2,1.2c1.7,0,4.7-3.1,9-9.3
		c0.1-0.2,0.2-0.3,0.3-0.3C183.7,656.8,183.7,656.9,183.7,657z"/>
</g>
<circle class="st4" cx="119.8" cy="655.8" r="110.2"/>
<circle class="st5" cx="119" cy="119" r="119"/>
<circle class="st4" cx="119.8" cy="119.8" r="110.2"/>
<g>
	<path class="st1" d="M99,91.9c0,0.9-0.9,2.3-2.8,4.1c-1.9,1.8-4.2,3.5-6.9,5.1c-0.4,1.1-0.9,3.1-1.6,6.1c-1.1,4.6-2.1,7.8-3,9.8
		c-0.9,1.9-2.4,3.9-4.5,5.9c-6.1,5.8-12.9,8.6-20.5,8.6c-2.2,0-4.1-0.4-5.7-1.1c-0.9,1.8-1.4,3.4-1.4,4.7c0,1.7,0.6,3.2,1.7,4.6
		c0.1,0.1,0.2,0.3,0.2,0.4c0,0.2-0.1,0.2-0.3,0.2c-0.5,0-0.9-0.6-1.5-1.8c-0.5-1.2-0.8-2.3-0.8-3.4c0-1.5,0.5-3.2,1.5-5
		c-4.1-2.1-6.1-5.7-6.1-10.9c0-3.3,1-6.6,2.9-9.8c2-3.3,4.7-6.2,8.2-8.8c4.5-3.3,9-5,13.4-5c2.4,0,4.3,0.7,5.7,2
		c1.4,1.3,2.1,3.2,2.1,5.5c0,1.2-0.2,2.5-0.5,3.8c2.9-1.9,5.4-3.5,7.6-4.9c1.4-3.1,3.2-5.7,5.3-7.9c2.1-2.2,4-3.3,5.6-3.3
		C98.5,90.8,99,91.1,99,91.9z M79.1,102.9c0-2.1-0.6-3.7-1.9-5c-1.3-1.2-3-1.9-5.1-1.9c-5.3,0-10.3,2.7-15.2,8.2
		c-4.9,5.5-7.4,11.1-7.4,17c0,3.8,1.4,6.6,4.2,8.2c1.3-2.2,3.2-4.6,5.7-7.2c-1.3-1.1-1.9-2.4-1.9-4c0-1.2,0.4-2.2,1.1-3
		c0.7-0.8,1.6-1.2,2.7-1.2c1.3,0,2,0.6,2,1.8c0,0.6-0.2,1.2-0.7,1.6c-0.5,0.5-1.1,0.7-1.7,0.7c-1,0-1.4-0.5-1.4-1.4
		c0-0.3,0.1-0.6,0.3-0.9c0.1-0.3,0.1-0.4,0.1-0.4c0-0.1-0.1-0.2-0.2-0.2c-0.3,0-0.7,0.4-1,1.1s-0.5,1.4-0.5,2.1
		c0,1.3,0.6,2.4,1.8,3.5c3.9-4.1,10.1-9,18.6-14.5C78.9,105.6,79.1,104.1,79.1,102.9z M86.4,102.8c-2.3,1.4-4.8,3.1-7.5,4.9
		c-1.3,4.1-3.5,7.8-6.8,10.9c-3.2,3.1-6.3,4.7-9.3,4.7c-0.9,0-1.9-0.2-3-0.7c-2.2,2.3-4.1,4.7-5.6,7.2c1.6,0.7,3.4,1.1,5.4,1.1
		c3.7,0,7.2-1,10.7-3.1c3.4-2.1,6.4-5,8.8-8.7c1.2-1.7,2.1-3.3,2.7-4.8c0.7-1.5,1.7-4.3,3.2-8.3C85.5,105,85.9,103.9,86.4,102.8z
		 M78.1,108.2l-1.9,1.3c-7.4,5.1-12.7,9.3-15.9,12.7c0.8,0.4,1.7,0.6,2.6,0.6c2.7,0,5.6-1.4,8.6-4.3S76.6,112.2,78.1,108.2z
		 M98.4,92c0-0.5-0.3-0.7-0.8-0.7c-1.3,0-2.8,0.9-4.4,2.7c-1.6,1.8-2.9,3.9-3.7,6.3c2.6-1.6,4.7-3.2,6.4-4.7
		C97.6,94,98.4,92.8,98.4,92z"/>
	<path class="st1" d="M98,114.3l-0.2,0.4h-3.8l-6.5,11.2c-0.8,1.3-1.2,2.4-1.2,3.2c0,0.9,0.5,1.3,1.4,1.3c1.8,0,4.8-3.1,9-9.3
		c0.1-0.2,0.3-0.3,0.4-0.3c0.1,0,0.2,0.1,0.2,0.2c0,0.1-0.1,0.2-0.3,0.5l-1.3,1.7c-3.7,5.1-6.4,7.7-8.3,7.7c-0.9,0-1.7-0.3-2.3-1
		s-0.9-1.5-0.9-2.5c0-1.2,0.5-2.6,1.6-4.4l4.9-8.3h-3l0.3-0.4h2.9l3.4-5.7c0.6,0.2,1.1,0.2,1.7,0.2c0.5,0,1.1-0.1,1.7-0.2l-3.4,5.7
		H98z"/>
	<path class="st1" d="M113.8,121c0,0.2-0.6,0.9-1.8,2.1c-1.5,1.6-2.9,2.5-4.2,2.5c-1.5,0-2.2-0.9-2.2-2.6c0-0.5,0.1-1.2,0.4-2.1
		c-1.2,1.1-2.2,2.1-3,3.2c-0.8,1.1-2.1,3.2-4,6.4c-1-0.1-1.6-0.1-1.8-0.1c-0.1,0-0.7,0-1.8,0.1l4.8-7.8c2.4-3.9,3.6-6.3,3.6-7.3
		c0-0.5-0.2-0.8-0.7-0.8c-1.1,0-3.1,2.1-6,6.3c-0.2,0.3-0.3,0.4-0.5,0.4c-0.1,0-0.1-0.1-0.1-0.2c0-0.1,0.1-0.2,0.1-0.2l0.5-0.7
		c3-4,5.1-6,6.1-6c1.6,0,2.3,1,2.3,3c0,1.5-0.8,3.5-2.4,6c1-1.2,2-2.1,2.9-2.9c0.7-1.7,1.7-3.2,2.8-4.4c1.1-1.2,2.1-1.8,3-1.8
		c0.6,0,0.9,0.3,0.9,0.8c0,0.9-1.4,2.3-4.1,4c-0.4,0.3-1.1,0.7-1.9,1.2l-0.4,0.3c-0.3,0.9-0.4,1.6-0.4,2.2c0,1.6,0.6,2.5,1.8,2.5
		c1.5,0,3.2-1.3,5-3.8c0.4-0.4,0.6-0.6,0.7-0.6C113.8,120.8,113.8,120.9,113.8,121z"/>
	<path class="st1" d="M134.4,121c0,0.4-1.4,2.3-4.3,5.7c-2.3,2.8-4.1,4.2-5.5,4.2c-0.9,0-1.6-0.3-2.2-1c-0.6-0.7-0.9-1.5-0.9-2.5
		c0-1.1,0.3-2.2,0.9-3.4c-2,2.7-3.4,4.6-4.5,5.5c-1,1-2,1.4-3,1.4c-1,0-1.9-0.4-2.6-1.3s-1.1-2-1.1-3.4c0-3.8,2.6-7.1,7.9-10
		c2.3-1.3,4.2-1.9,5.6-1.9c1.2,0,1.8,0.6,1.8,1.8c0,0.3-0.1,0.8-0.2,1.3l1.5-2.8c0.6,0.1,1.1,0.2,1.6,0.2c0.5,0,1.2-0.1,2.1-0.2
		l-5.2,8.6c-1.8,3-2.7,5-2.7,5.9c0,0.9,0.4,1.4,1.1,1.4c0.8,0,2-0.9,3.8-2.7c1.7-1.8,3.5-4,5.3-6.6c0.1-0.2,0.2-0.3,0.3-0.3
		C134.3,120.8,134.4,120.9,134.4,121z M126.3,116.2c0-1-0.4-1.4-1.3-1.4c-1.8,0-4.2,1.8-7.1,5.3c-2.9,3.5-4.4,6.4-4.4,8.5
		c0,1.3,0.6,1.9,1.7,1.9c1.3,0,3.7-2.2,7-6.7C125,120,126.3,117.5,126.3,116.2z"/>
	<path class="st1" d="M145.2,114.3l-0.2,0.4h-3.8l-6.5,11.2c-0.8,1.3-1.2,2.4-1.2,3.2c0,0.9,0.5,1.3,1.4,1.3c1.8,0,4.8-3.1,9-9.3
		c0.1-0.2,0.3-0.3,0.4-0.3c0.1,0,0.2,0.1,0.2,0.2c0,0.1-0.1,0.2-0.3,0.5l-1.3,1.7c-3.7,5.1-6.4,7.7-8.3,7.7c-0.9,0-1.7-0.3-2.3-1
		s-0.9-1.5-0.9-2.5c0-1.2,0.5-2.6,1.6-4.4l4.9-8.3h-3l0.3-0.4h2.9l3.4-5.7c0.6,0.2,1.1,0.2,1.7,0.2c0.5,0,1.1-0.1,1.7-0.2l-3.4,5.7
		H145.2z"/>
	<path class="st1" d="M159.1,121c0,0.1-0.2,0.3-0.5,0.8l-1.3,1.6c-4,5-7.5,7.5-10.4,7.5c-1.4,0-2.5-0.5-3.4-1.5s-1.4-2.2-1.4-3.7
		c0-3.5,2.5-6.6,7.4-9.3c2.6-1.4,4.7-2.1,6.3-2.1c0.7,0,1.3,0.2,1.8,0.6c0.5,0.4,0.7,0.9,0.7,1.5c0,1.4-0.9,2.6-2.8,3.6
		c-1.8,1-4.9,1.9-9.2,2.8c-1.3,2-2,3.7-2,5c0,1.7,0.9,2.5,2.7,2.5c3.1,0,6.9-3,11.3-9c0.2-0.3,0.4-0.5,0.6-0.5
		C159.1,120.9,159.1,120.9,159.1,121z M156.6,115.6c0-0.6-0.3-0.9-1-0.9c-1,0-2.4,0.7-4.1,2.2c-1.7,1.4-3.3,3.3-5,5.6
		c2.8-0.7,5.2-1.7,7.1-3.1C155.7,118,156.6,116.8,156.6,115.6z"/>
	<path class="st1" d="M179.2,121c0,0.3-1.1,1.6-3.2,4c-2.4,2.6-5.4,4.9-9.2,7l-1.5,2.7c-2.7,4.9-5.6,8.7-8.9,11.3
		c-3.2,2.6-5.9,3.8-8.2,3.8c-0.8,0-1.5-0.3-2.1-0.8c-0.5-0.5-0.8-1.1-0.8-1.9c0-4,4.5-8.1,13.6-12.2c2-0.9,3.2-1.5,3.8-1.8l5-9.2
		c-2.2,2.9-3.7,4.7-4.6,5.6c-0.9,0.8-1.8,1.2-2.7,1.2c-1,0-1.9-0.4-2.6-1.3c-0.7-0.9-1.1-2-1.1-3.3c0-3.4,2.2-6.4,6.6-9.2
		c2.9-1.8,5.3-2.8,6.9-2.8c1.2,0,1.8,0.6,1.8,1.9c0,0.4-0.1,0.8-0.3,1.3l1.6-3c0.5,0.1,1,0.2,1.4,0.2c0.5,0,1.2-0.1,2.2-0.2
		c-0.1,0.2-1,1.6-2.6,4.4l-7.3,12.5c2.6-1.4,4.6-2.8,6.1-4.2c1.5-1.3,3.3-3.3,5.2-5.8c0.3-0.4,0.5-0.6,0.6-0.6
		C179.1,120.9,179.2,120.9,179.2,121z M162.4,133.7c-0.4,0.2-1.5,0.8-3.3,1.7c-8.9,4.4-13.4,8.4-13.4,11.9c0,0.6,0.2,1.1,0.7,1.5
		c0.4,0.4,1,0.6,1.7,0.6c2.1,0,4.2-1.1,6.3-3.3s4.6-6.1,7.6-11.8L162.4,133.7z M171.6,116.2c0-1-0.5-1.5-1.4-1.5
		c-1.8,0-4.1,1.8-7,5.3c-2.9,3.5-4.4,6.3-4.4,8.5c0,1.3,0.6,2,1.7,2c1.2,0,3.1-1.7,5.9-5.2C169.9,120.8,171.6,117.8,171.6,116.2z"/>
	<path class="st1" d="M197.6,121c0,0.3-1.1,1.6-3.2,4c-2.4,2.6-5.5,5-9.3,7.1l-1.4,2.6c-2.8,5.1-5.8,8.9-8.9,11.3
		c-3.2,2.6-5.9,3.8-8.3,3.8c-0.8,0-1.5-0.3-2-0.8c-0.5-0.5-0.8-1.1-0.8-1.9c0-3.9,4.5-8,13.6-12.2c0.7-0.4,1.9-0.9,3.3-1.6l0.4-0.3
		l5.2-9.2c-2,2.8-3.5,4.6-4.4,5.5c-0.9,0.9-1.8,1.3-2.8,1.3c-0.8,0-1.5-0.3-2.1-1c-0.6-0.7-0.9-1.5-0.9-2.4c0-1.1,0.7-2.9,2.1-5.2
		l4.5-7.6c0.4,0.1,1,0.1,1.6,0.1c0.5,0,1.2-0.1,2.1-0.2l-5.8,9.4c-1.6,2.7-2.5,4.4-2.5,5.2c0,0.9,0.4,1.3,1.2,1.3
		c2.1,0,5.4-3.7,9.7-11.2l2.7-4.6c0.4,0.1,1,0.1,1.6,0.1c0.5,0,1.2-0.1,2-0.2c-2.4,3.8-5.7,9.5-9.8,16.9c2.4-1.2,4.4-2.6,6-4
		c1.6-1.4,3.5-3.5,5.5-6.1c0.3-0.4,0.4-0.5,0.5-0.5C197.6,120.9,197.6,120.9,197.6,121z M180.7,133.7c-0.3,0.2-1.4,0.7-3.3,1.7
		c-8.9,4.4-13.3,8.4-13.3,11.9c0,1.5,0.8,2.2,2.5,2.2c2.1,0,4.1-1.1,6.2-3.4c2.1-2.2,4.6-6.2,7.6-11.8L180.7,133.7z"/>
</g>
</svg>
