<?xml version="1.0" encoding="utf-8"?>
<!-- Generator: Adobe Illustrator 19.1.0, SVG Export Plug-In . SVG Version: 6.00 Build 0)  -->
<svg version="1.1" id="Lager_1" xmlns="http://www.w3.org/2000/svg" xmlns:xlink="http://www.w3.org/1999/xlink" x="0px" y="0px"
	 viewBox="0 0 181.7 58" style="enable-background:new 0 0 181.7 58;" xml:space="preserve">
<style type="text/css">
	.st0{fill:#DADAD8;}
</style>
<g>
	<path class="st0" d="M42.3,15.6h-0.5c-1.4,0-2.6,1.2-2.6,2.6v0.5c0,1.4,1.2,2.6,2.6,2.6h0.5c1.4,0,2.6-1.2,2.6-2.6v-0.5
		C45,16.8,43.8,15.6,42.3,15.6z"/>
	<g>
		<path class="st0" d="M60.6,37.8v-2.6h2.2v7.6h-2V42c-0.2,0.3-0.4,0.5-0.7,0.7c-0.3,0.1-0.6,0.2-1,0.2c-0.7,0-1.3-0.3-1.8-0.8
			c-0.5-0.5-0.7-1.2-0.7-2.1c0-0.6,0.1-1.1,0.3-1.6c0.2-0.5,0.5-0.8,0.9-1.1c0.4-0.2,0.8-0.4,1.2-0.4c0.4,0,0.7,0.1,0.9,0.2
			C60.2,37.4,60.4,37.6,60.6,37.8z M60.7,40c0-0.4-0.1-0.8-0.3-1c-0.2-0.2-0.4-0.3-0.7-0.3c-0.3,0-0.5,0.1-0.7,0.3
			c-0.2,0.2-0.3,0.5-0.3,1c0,0.4,0.1,0.7,0.2,0.9c0.2,0.2,0.4,0.3,0.6,0.3c0.3,0,0.5-0.1,0.7-0.3C60.6,40.8,60.7,40.5,60.7,40z"/>
		<path class="st0" d="M70.1,40.5h-4.2c0,0.3,0.1,0.6,0.3,0.8c0.2,0.2,0.5,0.3,0.8,0.3c0.4,0,0.6-0.1,0.8-0.4h2.1
			c-0.1,0.3-0.2,0.5-0.3,0.7c-0.3,0.3-0.6,0.6-1.1,0.8c-0.5,0.2-1,0.3-1.6,0.3c-1,0-1.8-0.3-2.3-0.8c-0.6-0.5-0.8-1.2-0.8-2
			c0-0.9,0.3-1.6,0.9-2.2c0.6-0.6,1.3-0.8,2.3-0.8c0.5,0,1,0.1,1.4,0.3c0.4,0.2,0.8,0.4,1.1,0.8c0.3,0.4,0.5,0.8,0.6,1.2
			C70.1,39.7,70.1,40.1,70.1,40.5z M65.9,39.4h2c0-0.3-0.1-0.5-0.3-0.7c-0.2-0.2-0.4-0.3-0.7-0.3c-0.3,0-0.5,0.1-0.7,0.2
			C66.1,38.8,66,39.1,65.9,39.4z"/>
		<path class="st0" d="M70.9,41.1h2.1c0,0.2,0.1,0.4,0.2,0.5c0.1,0.1,0.3,0.2,0.6,0.2c0.2,0,0.4,0,0.5-0.1c0.1-0.1,0.2-0.2,0.2-0.3
			c0-0.1,0-0.2-0.1-0.3c-0.1-0.1-0.2-0.1-0.3-0.2l-1.2-0.3c-0.6-0.2-1.1-0.4-1.3-0.6c-0.3-0.3-0.4-0.6-0.4-1c0-0.4,0.1-0.7,0.3-0.9
			c0.2-0.3,0.5-0.5,0.9-0.6c0.4-0.2,0.9-0.2,1.5-0.2c0.9,0,1.6,0.2,2,0.5c0.4,0.3,0.6,0.7,0.7,1.2h-2c0-0.2-0.1-0.3-0.2-0.4
			s-0.3-0.1-0.5-0.1c-0.2,0-0.4,0-0.5,0.1c-0.1,0.1-0.1,0.2-0.1,0.3c0,0.1,0,0.2,0.1,0.2c0.1,0.1,0.2,0.1,0.5,0.2l1,0.2
			c0.7,0.2,1.2,0.4,1.4,0.7c0.3,0.3,0.4,0.6,0.4,1c0,0.3-0.1,0.6-0.2,0.9c-0.1,0.3-0.4,0.5-0.6,0.6c-0.3,0.2-0.6,0.3-0.9,0.3
			c-0.3,0.1-0.7,0.1-1.1,0.1c-0.5,0-0.9,0-1.3-0.1c-0.4-0.1-0.7-0.2-0.9-0.4c-0.2-0.2-0.4-0.4-0.5-0.7
			C70.9,41.5,70.9,41.3,70.9,41.1z"/>
		<path class="st0" d="M77.7,35h2.2v1.6h-2.2V35z M77.7,42.8v-5.5h2.2v5.5H77.7z"/>
		<path class="st0" d="M85.1,38v-0.7h1.9v4.5c0,0.6,0,1.1-0.1,1.4c-0.1,0.3-0.2,0.6-0.4,0.7c-0.3,0.2-0.6,0.4-1,0.5
			c-0.4,0.1-0.9,0.2-1.4,0.2c-0.6,0-1.1-0.1-1.5-0.2c-0.4-0.1-0.7-0.4-1-0.6c-0.2-0.2-0.3-0.5-0.3-0.8h2.2c0,0.1,0.1,0.2,0.2,0.3
			c0.1,0.1,0.3,0.1,0.5,0.1c0.3,0,0.5-0.1,0.6-0.2c0.1-0.2,0.2-0.5,0.2-0.9c0-0.1,0-0.2,0-0.4c-0.2,0.2-0.4,0.3-0.6,0.4
			c-0.3,0.1-0.6,0.2-1,0.2c-0.7,0-1.3-0.2-1.8-0.7c-0.5-0.5-0.7-1.1-0.7-1.9c0-0.6,0.1-1.1,0.3-1.5c0.2-0.4,0.5-0.7,0.9-0.9
			c0.4-0.2,0.8-0.3,1.2-0.3c0.4,0,0.7,0.1,1,0.3C84.7,37.5,84.9,37.7,85.1,38z M84.1,41c0.3,0,0.5-0.1,0.6-0.3
			c0.2-0.2,0.3-0.5,0.3-0.9c0-0.4-0.1-0.7-0.3-0.9c-0.2-0.2-0.4-0.3-0.7-0.3c-0.3,0-0.5,0.1-0.7,0.3c-0.2,0.2-0.3,0.5-0.3,0.9
			c0,0.3,0.1,0.6,0.3,0.8C83.6,40.9,83.8,41,84.1,41z"/>
		<path class="st0" d="M88.2,42.8v-5.5h2v0.9c0.3-0.4,0.5-0.6,0.8-0.8c0.3-0.2,0.6-0.2,1-0.2c0.7,0,1.2,0.2,1.6,0.6
			c0.4,0.4,0.6,0.9,0.6,1.7v3.4H92v-3c0-0.3-0.1-0.6-0.2-0.7c-0.1-0.1-0.3-0.2-0.6-0.2c-0.2,0-0.4,0.1-0.6,0.3
			c-0.2,0.2-0.2,0.4-0.2,0.8v2.9H88.2z"/>
		<path class="st0" d="M95.4,42.8v-7.6h2.2v2.6c0.2-0.2,0.4-0.4,0.7-0.5c0.2-0.1,0.5-0.2,0.9-0.2c0.7,0,1.3,0.3,1.7,0.8
			c0.5,0.5,0.7,1.2,0.7,2.2c0,0.6-0.1,1.1-0.3,1.5c-0.2,0.4-0.5,0.8-0.9,1c-0.4,0.2-0.8,0.3-1.3,0.3c-0.4,0-0.8-0.1-1-0.2
			c-0.3-0.2-0.5-0.4-0.7-0.7v0.8H95.4z M98.4,38.8c-0.3,0-0.5,0.1-0.7,0.3c-0.2,0.2-0.3,0.5-0.3,0.9c0,0.3,0,0.5,0.1,0.7
			c0.1,0.2,0.2,0.4,0.3,0.4c0.1,0.1,0.3,0.1,0.5,0.1c0.3,0,0.5-0.1,0.7-0.3c0.2-0.2,0.3-0.5,0.3-1c0-0.4-0.1-0.8-0.3-1
			C98.9,38.9,98.7,38.8,98.4,38.8z"/>
		<path class="st0" d="M105.2,40.7l0.9-3.4h2.1l-1.8,5.3c-0.2,0.7-0.4,1.1-0.6,1.4c-0.2,0.3-0.4,0.4-0.6,0.5
			c-0.3,0.1-0.8,0.2-1.4,0.2c-0.3,0-0.6,0-1.1,0v-1.5c0.1,0,0.2,0,0.4,0c0.3,0,0.5,0,0.6-0.1c0.1-0.1,0.2-0.2,0.2-0.3
			c0-0.1,0-0.2-0.1-0.3l-1.9-5.1h2.2L105.2,40.7z"/>
		<path class="st0" d="M109,42.8v-5.5h2v1.1c0.2-0.4,0.4-0.8,0.7-1c0.3-0.2,0.6-0.3,1-0.3c0.1,0,0.2,0,0.3,0v2.2
			c-0.2,0-0.4-0.1-0.5-0.1c-0.4,0-0.8,0.1-1,0.3c-0.2,0.2-0.3,0.6-0.3,1.1v2H109z"/>
		<path class="st0" d="M116,38.9h-2.1c0-0.4,0.1-0.6,0.2-0.8c0.1-0.2,0.3-0.4,0.5-0.5c0.3-0.2,0.6-0.3,1-0.4
			c0.4-0.1,0.8-0.1,1.2-0.1c0.4,0,0.8,0,1.1,0.1c0.3,0.1,0.6,0.1,0.8,0.3c0.2,0.1,0.4,0.3,0.5,0.4c0.1,0.1,0.2,0.3,0.3,0.6
			c0,0.1,0.1,0.4,0.1,0.8v2.8c0,0.3,0.1,0.4,0.3,0.6v0.1h-2.3l-0.1-0.6c-0.3,0.3-0.6,0.4-0.9,0.6c-0.3,0.1-0.7,0.2-1.1,0.2
			c-0.7,0-1.2-0.2-1.5-0.5c-0.3-0.3-0.5-0.7-0.5-1.2c0-0.3,0.1-0.5,0.2-0.7c0.1-0.2,0.3-0.4,0.5-0.6c0.2-0.1,0.5-0.3,0.9-0.3
			c0.4-0.1,0.9-0.2,1.6-0.2c0.4,0,0.6-0.1,0.7-0.1c0.1-0.1,0.2-0.2,0.2-0.4c0-0.1-0.1-0.3-0.2-0.3c-0.1-0.1-0.3-0.1-0.6-0.1
			c-0.3,0-0.5,0-0.6,0.1C116.1,38.6,116,38.8,116,38.9z M115.7,35.2c0-0.3,0.1-0.6,0.4-0.8c0.2-0.2,0.5-0.3,0.8-0.3
			c0.3,0,0.6,0.1,0.8,0.3c0.2,0.2,0.4,0.5,0.4,0.8c0,0.3-0.1,0.6-0.4,0.9c-0.2,0.2-0.5,0.3-0.8,0.3c-0.3,0-0.6-0.1-0.8-0.3
			C115.8,35.8,115.7,35.6,115.7,35.2z M117.5,40.3c-0.1,0-0.2,0.1-0.3,0.1c-0.1,0-0.4,0.1-0.7,0.2c-0.3,0.1-0.4,0.1-0.5,0.2
			c-0.1,0.1-0.1,0.2-0.1,0.3c0,0.1,0.1,0.3,0.2,0.4c0.1,0.1,0.3,0.1,0.5,0.1c0.2,0,0.3,0,0.5-0.1c0.2-0.1,0.3-0.2,0.4-0.3
			c0.1-0.1,0.1-0.2,0.1-0.3C117.5,40.8,117.5,40.6,117.5,40.3z M116.3,35.2c0,0.2,0.1,0.3,0.2,0.4c0.1,0.1,0.2,0.2,0.4,0.2
			c0.2,0,0.3-0.1,0.4-0.2c0.1-0.1,0.2-0.2,0.2-0.4c0-0.2-0.1-0.3-0.2-0.4c-0.1-0.1-0.2-0.2-0.4-0.2c-0.2,0-0.3,0.1-0.4,0.2
			C116.4,34.9,116.3,35.1,116.3,35.2z"/>
	</g>
	<path class="st0" d="M39.2,26.3v10.9h-5.8v-7.9h-5.6c0,0,0,0.1,0,0.1c0,4.5-3.6,8.1-8.1,8.1s-8.1-3.6-8.1-8.1c0-1.1,0.2-2.1,0.6-3
		h21.3V15.6h-5.8v2.5c-2.2-1.6-5-2.5-7.9-2.5C12.1,15.6,6,21.7,6,29.3s6.1,13.7,13.7,13.7c2.9,0,5.7-0.9,7.9-2.5v2.5H45V26.3H39.2z
		 M19.7,21.1c2.2,0,4.1,0.8,5.6,2.2H14.1C15.6,22,17.5,21.1,19.7,21.1z"/>
	<rect x="47.9" y="37.1" class="st0" width="5.8" height="5.8"/>
</g>
</svg>
